<?xml version="1.0" encoding="UTF-8"?>
<svg id="Layer_1" xmlns="http://www.w3.org/2000/svg" viewBox="0 0 1316 736">
  <defs>
    <style>
      .cls-1 {
        fill: #1583c2;
      }

      .cls-2 {
        fill: #8c8e8f;
      }

      .cls-3 {
        fill: #c4c340;
      }

      .cls-4 {
        fill: #194e7b;
      }

      .cls-5 {
        fill: #6ea850;
      }

      .cls-6 {
        fill: #069ac0;
      }
    </style>
  </defs>
  <path class="cls-5" d="M747.96,300.27s85.17,34.51,74.43,67.5c-18.48,7.27-40.18-9.72-51.89-35.52-11.18-24.68-22.54-31.98-22.54-31.98"/>
  <path class="cls-3" d="M763.6,280s83.89,17.62,78.62,50.47c-.78,4.87-27.94,1.23-38.17-7.58-20.31-17.5-10.04-23.83-40.46-42.89"/>
  <path class="cls-4" d="M772.59,258.35s25.73-5.04,44.58,1.51c14.82,5.16,29.68,11,33.99,33.15,0,0-17.06,7.95-35.65-5.39-18.61-13.34-25.2-28.41-42.93-29.27"/>
  <path class="cls-1" d="M774.5,234.97s12.7-6.85,29.32-6.24c17.21.63,40.95,6.12,43.49,24.3,0,0-13.14,12.39-40.85-4.28,0,0-14.82-11.49-31.95-13.79"/>
  <path class="cls-6" d="M770.68,212.45s14.39-15.3,50.97-11.14c0,0,14.31,2.68,20.27,15.96,0,0-10.83,14.26-40.63-.04,0,0-12.53-8.94-30.61-4.78"/>
  <path class="cls-5" d="M761.43,191.67s9.12-13.04,31.9-15.94c0,0,22.95-3.84,30.8,11.12,0,0-8,10.37-34.39,5.15-25.55-5.05-28.31-.33-28.31-.33"/>
  <path class="cls-3" d="M747.96,172.27s6.77-23.91,33.88-24.94c0,0,11.18-.51,16.54,6.52,0,0-5.66,14.66-22.8,12.18,0,0-21.55-3.12-27.63,6.24"/>
  <path class="cls-4" d="M727.98,157.37c-1.11.24,3.96-26.2,24.49-31.95,0,0,7.79-2.47,11.78.91-.27,5.1-.62,23.14-36.27,31.04"/>
  <path class="cls-1" d="M724.41,108.35s13.63,27.5-16.86,38.96c0,0-3.95-13.21,0-23.59,3.94-10.37,12.91-13.95,16.86-15.38"/>
  <path class="cls-6" d="M683.26,139.7s11.15-7.32,9.21-28.88l-.59-12.5s-24.63,12.59-8.62,41.38"/>
  <path class="cls-4" d="M683.14,336.42s52.47,87.97,20.86,109.12c0,0-21.91-2.08-21.91-48.84,0-18.69,4.23-42.76,1.05-60.28"/>
  <path class="cls-1" d="M708.86,327.81s54.74,47.16,40.02,103.13c0,0-20.9,4.61-26.47-25.88-5.56-30.48-6.61-47.8-13.55-77.25"/>
  <path class="cls-6" d="M729.71,315.68s20.52,11.51,32.66,24.25c0,0,34.97,34.38,28.55,60.69,0,0-24.72,12.75-43.49-37.47-18.77-50.22-9.44-25.1-17.73-47.46"/>
  <path class="cls-2" d="M645.04,201.57c.94,1.41.87,2.61.3,4.06,0-.58.29-1.16-.3-1.45-.3,0-.3.29-.3.57,0-.57-.29-.86-.57-1.15-.58,1.73-.58,3.18-.58,4.93-.58-.3,0-1.45-.58-1.16-.88.3-.3,1.75,0,2.61-2.04-3.77-2.33-8.41-.58-12.47,1.16-2.32,3.2-4.35,5.23-6.38.3-.28.88-1.15,0-1.15-.87-.3-1.45.57-1.75,1.45q-.29-.3-.57-.58c-.3.86-.88,1.73-1.16,2.61,0-.3,0-1.16-.3-1.16-.87.29-.87,1.74-1.16,2.61,0-.3,0-1.16-.29-.88-.88.58-.88,2.03-1.16,3.2,0-.3.29-1.16-.3-1.16-.87.3-.58,1.45-.58,2.31,0-.29-.29-.57-.29-.57-.88.86-.58,2.03-.58,2.9-.58-.3-.3-1.16-.58-1.16-.88.87-.58,2.03-.88,3.2-.28-.58.3-1.45-.28-2.03-.58.87-.58,1.74-.88,2.6-.28-.87.3-1.74-.28-2.32-.58.87,0,2.03-.3,2.9-.58-2.6-.58-5.22.3-7.53.58-1.16,1.16-2.33,2.03-3.48.88-1.16,2.04-2.03,3.21-2.9,1.75-1.45,4.06-1.75,5.52-3.48-.58-.58-1.46.29-2.03-.3l-.59.58c0-.29,0-.58-.29-.58-.58,0-.87.3-1.16.58,0-.29,0-.58-.29-.58-.58,0-.88.58-1.16.88,0-.3-.3-.58-.3-.58-.29.29-1.16.29-1.16,1.15q-.29-.29-.58-.57c-.29.29-.58.57-.58,1.15,0-.29,0-.58-.29-.58-.3.3-.58.58-.58,1.16l-.3-.29c-.28.57-.58,1.15-.58,1.74,0-.29-.28-.58-.28-.58-.58.58-.3,1.45-.58,2.03-.58-3.48.86-6.66,4.07-7.53,3.2-1.16,6.69-2.03,10.18-.3,0,0,.29-.28.29-.58-.29-.87-1.16-2.6-2.33-1.45,0-.29,0-.58.3-.87-.58-.87-1.46.29-2.04,0l.3-.29c-.58-.88-1.16.29-1.75,0l.29-.3c0-.29-.29-.29-.57-.29-.3.29-1.16.29-1.16,1.15,0-.29.29-1.15-.3-1.15-.87.29-1.16,1.45-1.75,2.03-.29-1.16,0-2.33,1.16-2.9,2.61-1.75,5.24-2.03,8.15-1.16,1.75.58,2.61,2.03,3.49,3.48.58-1.16.87-2.32,1.16-3.76,0,.28,0,.57.29.86.58-1.16.3-2.61.88-3.77.58,1.16.29,2.61.87,3.77.3-.3.3-.58.3-.86.29,1.45.58,2.6,1.16,3.76.87-2.03,2.61-3.2,4.65-3.76,3.2-.58,8.43.28,8.13,4.35-.58-.58-.87-1.75-1.75-2.03-.58,0-.29.87-.29,1.15,0-.87-.88-.87-1.16-1.15s-.58,0-.58.29.28.3.28.58c-.58-.29-1.16-.87-1.75-.29.3,0,.3.29.3.57-.58-.29-1.16-.57-1.75-.57-.58.29.29.87,0,1.15-.29-.58-.88-.29-1.16-.29-.58.58-1.75,2.31-1.45,2.31,3.49-1.45,7.55-.86,10.76.3,1.16.28,2.61,1.45,3.49,2.6.58,1.45.87,3.2.58,4.93-.58-.58,0-1.45-.58-2.03,0,0-.3.3-.3.58,0-1.16-.87-1.74-1.45-2.61-.3,0-.3.3-.3.58,0-.58-.29-.87-.58-1.15q-.29.29-.58.57c0-.87-.87-.87-1.16-1.15,0,0-.29.29-.29.58-.3-.3-.58-.58-.88-.88-.58,0-.87.58-1.45,0-.3-.29-.58,0-.58.58q-.3-.29-.58-.58c-.58.58-1.46-.29-2.04.3,2.62,2.32,6.4,3.18,8.73,6.38,2.33,3.48,3.49,7.24,2.33,11.01-.29-.87.3-2.03-.29-2.9-.58.58,0,1.45-.3,2.32-.29-.87-.29-1.74-.87-2.6-.58.58-.3,1.45-.3,2.03-.29-1.16,0-2.33-.87-3.2-.3,0,0,.87-.58,1.16,0-.87.29-2.03-.58-2.9,0,0-.3.28-.3.57,0-.86.3-2.02-.58-2.31-.58,0-.29.87-.29,1.16-.3-1.16-.3-2.61-1.16-3.2-.3-.29-.3.58-.3.88-.29-.88-.29-2.33-1.16-2.61-.29,0-.29.87-.29,1.16-.3-.88-.88-1.75-1.16-2.61q-.3.28-.58.58c-.3-.88-.88-1.45-1.75-1.75-.29,0-.29.58-.29.86,1.73,2.33,4.06,4.06,5.52,6.38,2.03,4.06,1.45,8.99-.58,13.05.29-.87.87-2.32,0-2.61-.58-.29,0,.87-.58,1.16,0-1.75,0-3.2-.58-4.93-.3.29-.58.58-.58,1.15,0-.28,0-.57-.3-.57-.58.29-.29.87-.29,1.45-.58-1.45,0-3.2.58-4.64,0-.58-.3-1.15-.58-1.74-.3.29-.58.58-.58,1.15-.3-1.15,0-2.6-.58-3.76-.58.29-.3.87-.3,1.16-.58-.88.3-2.03-.58-2.61-.28,0,0,.87-.57,1.16,0-.88.29-2.03-.59-2.61-.29,0-.29.87-.29,1.16,0-.88-.29-2.33-1.16-2.61-.29,0,0,.87-.29,1.16h-.58c0-.3,0-.58-.3-.58s-.58,0-.58.29c.3.87,1.46.87,1.75,1.75,0,.87.88,1.15.88,2.02-.3-.57-1.16-.87-1.75-.29,1.45.58,2.91,1.45,2.61,3.19,0-.58-.58-1.16-1.16-1.46-.3,0-.87,0-.87.3,1.16,1.16,2.33,2.32,2.03,4.06,0-.58-.3-1.16-.87-1.45-.3,0-.59.29-.59.29.88,1.74,1.76,3.48,1.16,5.51,0-.58.3-1.45-.29-1.16-.58,0-.29.87-.29,1.45l-.3-.29c-.58.87.3,1.45,0,2.32-.3.87-.3,1.45-.58,2.32-.29-.87.29-2.03-.29-2.9-.58,1.16-.58,2.61-.58,4.06,0-.28,0-.58-.3-.58-.58.3,0,1.16-.58,1.45.3-2.03-.58-4.06-.58-6.08.3,0,.58,0,.58-.3,0-.58.3-1.73-.29-1.73-.58-.3,0,1.15-.58,1.45,0-1.16,0-2.33-.88-2.61-.58-.29.3.86-.58,1.16-1.16.28-.58-.88-1.16-1.45-.87,11.59-.58,17.72,0,29.32,0,1.45.88,2.9.58,4.35-.29.58-.58,1.45-.29,2.03,0,.86.29,1.75.87,2.61.3,1.15-.87,2.32-.58,3.48.88,2.03,1.75,4.05,3.21,6.08h-11.63c1.16-2.32,3.19-4.35,2.91-6.96,0-.87-.58-1.74-.3-2.6,1.46-2.31.3-4.35.58-6.96.3-.58.58-1.16.58-1.73.58-11.89.58-17.74,0-29.61-.58.29-.29.87-.29,1.15-.3.58-1.16.3-1.46-.28.3,0,.3-.3.3-.58-.58-.87-.58.28-.88.28-.28.58-.58,1.46-.28,2.33-.58-.3,0-1.75-.58-1.45-.58,0-.3,1.15-.3,1.73,0,.3.3.3.58.3,0,2.02-.86,4.05-.58,6.08-.58-.29,0-1.15-.58-1.45-.29,0-.29.3-.29.58,0-1.45,0-2.9-.58-4.06-.58.87,0,2.03-.3,2.9-.29-.87-.29-1.45-.58-2.32-.29-.87.58-1.45,0-2.32l-.29.29c0-.58.29-1.45-.3-1.45-.58-.28-.29.58-.29,1.16-.3-1.75-.3-3.77,1.16-5.22.29-.29,0-.57-.3-.57-.87,0-.87.87-1.16,1.45-.29-1.75.88-2.9,2.04-4.06,0-.3-.58-.3-.88-.3-.58.3-1.16.88-1.16,1.46-.29-1.75,1.16-2.61,2.62-3.19-.58-.58-1.46-.29-1.75.29.58-1.15,1.16-2.02,2.33-2.9-.3-.29-.58-.57-1.16-.57.58-.3,0-.88.58-1.16,0-.28-.3-.28-.58-.28-.88.57-1.46,1.73-1.46,2.9,0-.3,0-1.16-.29-1.16-.88.58-.58,1.74-.58,2.61-.58-.3,0-1.16-.58-1.16-.88.58,0,1.74-.58,2.61,0-.3.29-.88-.3-1.16-.58,1.16-.29,2.61-.58,3.76,0-.57-.29-.87-.57-1.15-.3.87-.88,1.45-.3,2.32"/>
  <path class="cls-2" d="M631.95,245.39c9.63,2.81,18.03,8.11,25.88,13.92,16.57-14.5,39.84-20.01,61.36-15.95-20.64.58-42.16,6.09-57.28,20.58,4.07,3.77,8.15,7.54,12.22,11.31,1.16-1.74,1.16-4.06,2.61-5.79,1.45-1.75,3.78-2.61,5.82-2.32,2.33.57,4.07,2.9,3.49,5.21-.88,3.48-4.65,4.35-7.86,2.32-.57-.29-1.45,1.75-.87,2.61,1.16,2.03,3.49,3.18,5.82,4.06,1.75-2.61,5.82-2.61,7.56,0,1.45,2.02.58,4.93-1.46,5.79-5.52,2.32-11.34-1.45-15.7-4.93-2.62,4.06-9.6,8.41-13.68,3.18-.58-.87-.87-2.03-.58-3.18.58-2.32,2.91-4.06,5.24-3.48,1.16.29,2.33.58,2.91,1.74.58.88-.29,2.33.88,2.03.87,0,2.33-1.45,2.03-1.74-2.91-5.51-8.43-8.41-12.78-12.47-4.37,4.06-9.31,6.96-12.8,12.17-.58.88,1.16,2.03,2.03,2.03,1.16,0,.58-2.6,2.04-3.18,1.45-.58,2.91-.88,4.36-.3,1.75.88,2.91,2.9,2.62,4.93-.58,2.9-3.79,4.06-6.4,3.78-3.21-.58-6.11-2.61-7.86-5.51-4.07,3.18-8.71,6.38-14.25,5.79-1.16-.29-2.33-.87-2.91-2.03-1.16-2.03-.58-4.63,1.46-6.08,2.03-1.16,4.65-.58,6.1,1.45,2.33-.88,4.65-2.03,5.82-4.06.58-.86-.3-2.9-1.16-2.61-1.46.58-3.2,1.45-4.94.87-1.75-.87-2.91-2.9-2.62-4.93.58-2.6,2.91-4.05,5.52-3.47,1.46.57,2.62,1.15,3.79,2.32,1.45,1.73,1.45,4.06,2.61,5.79,4.07-3.77,8.15-7.54,12.22-11.31-15.12-14.49-36.64-20-57.29-20.58,11.92-2.31,24.14-1.45,36.06,2.03"/>
  <path class="cls-4" d="M567.13,300.27s-85.17,34.51-74.43,67.5c18.48,7.27,40.18-9.72,51.89-35.52,11.18-24.68,22.54-31.98,22.54-31.98"/>
  <path class="cls-5" d="M551.49,280s-83.89,17.62-78.62,50.47c.78,4.87,27.94,1.23,38.17-7.58,20.31-17.5,10.04-23.83,40.46-42.89"/>
  <path class="cls-1" d="M543.41,258.35s-25.73-5.04-44.58,1.51c-14.82,5.16-29.68,11-34,33.15,0,0,17.06,7.95,35.65-5.39,18.61-13.34,25.2-28.41,42.93-29.27"/>
  <path class="cls-3" d="M544.41,212.45s-14.39-15.3-50.97-11.14c0,0-14.31,2.68-20.27,15.96,0,0,10.84,14.26,40.64-.04,0,0,12.53-8.94,30.61-4.78"/>
  <path class="cls-5" d="M553.65,191.67s-9.12-13.04-31.9-15.94c0,0-22.95-3.84-30.8,11.12,0,0,8,10.37,34.39,5.15,25.55-5.05,28.31-.33,28.31-.33"/>
  <path class="cls-6" d="M567.13,172.27s-6.77-23.91-33.88-24.94c0,0-11.18-.51-16.54,6.52,0,0,5.66,14.66,22.8,12.18,0,0,21.55-3.12,27.63,6.24"/>
  <path class="cls-1" d="M587.11,157.37c1.11.24-3.96-26.2-24.49-31.95,0,0-7.79-2.47-11.78.91.27,5.1.62,23.14,36.27,31.04"/>
  <path class="cls-4" d="M590.68,108.35s-13.63,27.5,16.86,38.96c0,0,3.95-13.21,0-23.59-3.94-10.37-12.91-13.95-16.86-15.38"/>
  <path class="cls-3" d="M631.83,139.7s-11.15-7.32-9.21-28.88l.59-12.5s24.63,12.59,8.62,41.38"/>
  <path class="cls-5" d="M631.95,336.42s-52.47,87.97-20.86,109.12c0,0,21.91-2.08,21.91-48.84,0-18.69-4.23-42.76-1.05-60.28"/>
  <path class="cls-1" d="M585.37,315.68s-20.52,11.51-32.66,24.25c0,0-34.97,34.38-28.55,60.69,0,0,24.72,12.75,43.49-37.47,18.77-50.22,9.44-25.1,17.73-47.46"/>
  <path class="cls-5" d="M657.54,95.3s17.71,36.79,0,42.23c-17.71-5.44,0-42.23,0-42.23"/>
  <path class="cls-4" d="M541.94,234.97s-12.7-6.85-29.32-6.24c-17.21.63-40.95,6.12-43.49,24.3,0,0,13.14,12.39,40.85-4.28,0,0,14.82-11.49,31.95-13.79"/>
  <path class="cls-3" d="M657.81,341.49c-3.2,7.8-36.73,92.3,0,114.66,36.73-22.36,3.2-106.85,0-114.66"/>
  <path class="cls-6" d="M606.94,327.81s-54.74,47.16-40.02,103.13c0,0,20.9,4.61,26.47-25.88,5.56-30.48,6.61-47.8,13.55-77.25"/>
  <rect class="cls-2" x="140.64" y="508.13" width="3.3" height="3.63"/>
  <rect class="cls-2" x="135.22" y="508.13" width="3.3" height="3.63"/>
  <rect class="cls-2" x="189.48" y="540.89" width="3.3" height="3.63"/>
  <rect class="cls-2" x="194.9" y="540.89" width="3.3" height="3.63"/>
  <path class="cls-2" d="M207.36,534.44h-11.8v-18.65h-3.35v18.65h-43.97v-18.61c-1.13-.11-2.8-.22-5.01-.32-2.22-.1-3.86-.15-4.93-.15-2.42,0-4.36.37-5.79,1.13-1.43.75-2.46,1.93-3.08,3.55-.62,1.61-.94,3.76-.94,6.44s.33,4.85.98,6.43c.65,1.57,1.71,2.71,3.18,3.44,1.48.72,3.5,1.08,6.08,1.08h71.98v-31.07h-3.35v28.09ZM144.9,534.44h-5.6c-1.88,0-3.35-.27-4.42-.8-1.07-.53-1.85-1.38-2.32-2.54-.48-1.15-.72-2.72-.72-4.71,0-2.86.54-4.9,1.61-6.14,1.07-1.24,2.92-1.86,5.56-1.86,1.39,0,3.36.09,5.9.26v15.79Z"/>
  <path class="cls-2" d="M225.64,514.97c-2.43,0-4.33.43-5.69,1.32-1.36.88-2.3,2.17-2.82,3.85-.53,1.69-.79,3.87-.79,6.56,0,3.17.52,5.75,1.54,7.74,1.03,1.99,3.12,2.98,6.28,2.98h6.38c0,2.19-.19,3.85-.57,4.98-.38,1.13-.87,1.87-1.5,2.23-.63.36-1.44.54-2.46.54-1.53,0-3.65-.2-6.34-.61v2.95c3.04.43,5.22.65,6.56.65,2.8,0,4.78-1.09,5.92-3.27,1.14-2.17,1.71-5.56,1.71-10.14v-18.96c-1.07-.2-2.42-.39-4.05-.56-1.63-.17-3.03-.26-4.19-.26M230.55,534.44h-5.13c-2.31,0-3.85-.73-4.6-2.19-.75-1.45-1.13-3.34-1.13-5.64,0-1.96.2-3.57.58-4.83.4-1.25,1.08-2.2,2.07-2.85.99-.65,2.36-.98,4.13-.98,1.15,0,2.52.1,4.08.31v16.18Z"/>
  <path class="cls-2" d="M265.1,534.44h-9.42v-5.11c0-5.11-1.06-8.79-3.19-11.06-2.12-2.27-4.76-3.4-7.92-3.4-.81,0-1.65.06-2.54.17-.88.12-1.47.23-1.76.34l.22,2.47h3.52c2.22,0,4.17.86,5.83,2.58,1.67,1.71,2.5,4.71,2.5,8.97v5.02h-14.11v2.98h30.21v-31.07h-3.34v28.09Z"/>
  <rect class="cls-2" x="276.26" y="506.36" width="3.34" height="31.06"/>
  <rect class="cls-4" x="301.22" y="507.83" width="3.89" height="4.23"/>
  <rect class="cls-4" x="306.65" y="507.83" width="3.89" height="4.23"/>
  <rect class="cls-4" x="346" y="540.59" width="3.89" height="4.23"/>
  <rect class="cls-4" x="340.57" y="540.59" width="3.89" height="4.23"/>
  <rect class="cls-4" x="367.46" y="540.59" width="3.89" height="4.23"/>
  <rect class="cls-4" x="390.16" y="540.59" width="3.9" height="4.23"/>
  <rect class="cls-4" x="395.58" y="540.59" width="3.89" height="4.23"/>
  <rect class="cls-4" x="406.48" y="507.83" width="3.89" height="4.23"/>
  <path class="cls-4" d="M409.17,534.15h-12.34v-18.65h-3.94v18.65h-15.28v-11.39c0-5.11-2.5-7.7-7.42-7.7-2.17,0-5.49.45-9.87,1.35l-.26.05.16,3.03,1.53-.16c3.91-.46,6.43-.69,7.69-.69,1.42,0,2.49.34,3.18,1.02.69.68,1.04,1.7,1.04,3.05v11.43h-26.42v-18.65h-3.94v18.65h-28.47v-18.58l-.27-.03c-1.07-.11-2.67-.22-5.03-.33-2.08-.1-3.8-.15-4.94-.15-2.49,0-4.48.39-5.93,1.16-1.49.78-2.58,2.02-3.23,3.7-.64,1.63-.96,3.84-.96,6.55s.34,4.94,1,6.54c.68,1.63,1.8,2.84,3.34,3.6,1.51.73,3.6,1.11,6.21,1.11h108.07v-22.23h-3.94v18.65ZM310.9,518.93v15.22h-5.31c-1.82,0-3.26-.26-4.29-.77-1.01-.5-1.73-1.28-2.19-2.39-.45-1.1-.69-2.65-.69-4.59,0-2.77.52-4.77,1.53-5.95,1.01-1.17,2.8-1.76,5.33-1.76,1.35,0,3.24.08,5.61.24"/>
  <rect class="cls-4" x="411.9" y="507.83" width="3.9" height="4.23"/>
  <rect class="cls-4" x="419.89" y="506.06" width="3.95" height="31.66"/>
  <rect class="cls-4" x="456.22" y="507.83" width="3.89" height="4.23"/>
  <rect class="cls-4" x="450.79" y="507.83" width="3.9" height="4.23"/>
  <path class="cls-4" d="M495.22,515.73l-.06-.24-3.3.15.04.32c.22,1.79.39,3.42.54,4.99.16,1.65.24,3.04.24,4.11v9.09h-4.26c-.62,0-1.26-.14-1.87-.43-.55-.25-1.03-.53-1.43-.85.37-1.28.56-2.79.56-4.48v-10.73h-3.94v10.77c0,1.67-.29,3.07-.85,4.17-.54,1.04-1.4,1.55-2.62,1.55h-4v-16.49h-3.94v16.49h-12.9v-18.65h-3.94v18.65h-15.76v-18.61h-3.94v23.19c0,1.98-.35,3.54-1.02,4.62-.66,1.05-1.63,1.56-2.99,1.56-.34,0-1.18-.05-2.71-.17l-.32-.02v3.52l2.2.21c.4.03.83.05,1.3.05,4.95,0,7.46-3.57,7.46-10.6v-.18h41.58c1.69,0,3.09-.57,4.16-1.7,1.43,1.13,3.04,1.7,4.78,1.7h8.38v-12.32c0-1.07-.14-2.56-.42-4.41-.27-1.84-.6-3.61-.98-5.26"/>
  <polygon class="cls-4" points="518.03 534.15 510.29 534.15 510.29 511.9 506.35 511.9 506.35 534.15 500.8 534.15 500.8 537.72 521.93 537.72 521.93 506.06 518.03 506.06 518.03 534.15"/>
  <rect class="cls-4" x="528.71" y="506.06" width="3.94" height="31.66"/>
  <rect class="cls-4" x="557.8" y="511.86" width="3.89" height="4.23"/>
  <path class="cls-4" d="M571.9,534.15h-12.55c-2.09,0-3.72-.15-4.86-.45-1.09-.28-1.88-.75-2.35-1.38-.47-.63-.7-1.54-.7-2.72,0-.74.08-1.73.23-3.02.16-1.28.25-2.09.29-2.4l.47-3.78-3.17-.15-.05.25c-.9,4.35-1.36,7.67-1.36,9.89,0,1.82.39,3.27,1.16,4.33.77,1.06,2.02,1.84,3.7,2.32,1.63.46,3.88.69,6.68.69h16.45v-22.23h-3.94v18.65Z"/>
  <rect class="cls-4" x="563.22" y="511.86" width="3.89" height="4.23"/>
  <path class="cls-4" d="M619.27,518.44h-10.02l1.43-2.77c.52-1.03,1.12-2.08,1.81-3.21.64-1.04,1.62-2.55,2.99-4.59l.18-.27-2.88-1.63-.16.2c-1.07,1.3-2.15,2.71-3.21,4.2-1.05,1.48-1.86,2.76-2.39,3.82l-2.34,4.57,2.41,3.25h11.91c1.4.03,2.37.62,2.97,1.79.63,1.22.95,2.69.95,4.37v5.97h-36.36v-28.09h-3.94v31.66h44.24v-9.5c0-2.84-.61-5.2-1.81-7.01-1.22-1.84-3.17-2.77-5.78-2.77"/>
  <rect class="cls-4" x="632.78" y="506.06" width="3.95" height="31.66"/>
  <rect class="cls-4" x="681.13" y="507.83" width="3.9" height="4.23"/>
  <rect class="cls-4" x="683.87" y="502.56" width="3.85" height="4.1"/>
  <rect class="cls-4" x="686.56" y="507.83" width="3.9" height="4.23"/>
  <path class="cls-4" d="M722.63,506.06v28.09h-10.26v-28.09h-3.93v28.09h-8.83v-8.74c0-1.08-.14-2.56-.42-4.41-.27-1.84-.6-3.61-.98-5.26l-.05-.25-3.31.15.04.32c.22,1.79.4,3.42.54,4.99.16,1.65.24,3.03.24,4.11v9.09h-4.26c-.62,0-1.25-.15-1.87-.43-.55-.26-1.03-.54-1.43-.85.37-1.28.56-2.79.56-4.48v-10.73h-3.94v10.77c0,1.68-.29,3.08-.85,4.17-.54,1.04-1.4,1.55-2.62,1.55h-4v-16.49h-3.94v16.49h-20.58v-18.61h-3.95v23.19c0,1.98-.34,3.53-1.02,4.62-.65,1.06-1.63,1.57-2.98,1.57-.34,0-1.18-.05-2.71-.17l-.32-.03v3.53l2.21.2c.4.02.83.04,1.3.04,4.95,0,7.46-3.56,7.46-10.6v-.17h29.56c1.69,0,3.09-.57,4.16-1.7,1.44,1.13,3.04,1.7,4.79,1.7h35.33v-31.66h-3.95Z"/>
  <path class="cls-2" d="M770.42,531.13c-1.21-.71-2.85-1.29-4.9-1.76-2.2-.48-3.81-.93-4.82-1.34-1.01-.4-1.73-.93-2.15-1.58-.42-.66-.63-1.59-.63-2.84,0-3.26,2.17-4.89,6.51-4.89,1.54,0,4.39.25,8.56.73l.3-2.81c-3.82-.58-6.84-.87-9.07-.87-6.46,0-9.68,2.68-9.68,8.05,0,1.78.3,3.22.91,4.28.61,1.06,1.57,1.92,2.89,2.56,1.32.64,3.17,1.19,5.54,1.68,1.73.37,3.07.82,4.04,1.3.95.49,1.63,1.1,2.03,1.82.41.73.61,1.65.61,2.77,0,2.02-.56,3.69-1.67,5-1.11,1.31-2.69,1.96-4.75,1.96l-11.47-.04c-1.41,0-2.72-.29-3.92-.86-1.2-.58-2.16-1.4-2.87-2.47-.71-1.06-1.06-2.27-1.06-3.63s.32-4.07.96-8.31l-3.17-.52c-.75,4.62-1.13,7.81-1.13,9.57s.5,3.38,1.52,4.79c1.01,1.4,2.39,2.49,4.13,3.27,1.74.78,3.66,1.17,5.77,1.17h11.41c3.1,0,5.47-.92,7.12-2.77,1.65-1.84,2.47-4.31,2.47-7.4,0-1.67-.27-3.06-.82-4.15-.55-1.1-1.43-2-2.65-2.7"/>
  <rect class="cls-2" x="753.28" y="551.27" width="3.3" height="3.63"/>
  <rect class="cls-2" x="758.71" y="551.27" width="3.3" height="3.63"/>
  <path class="cls-2" d="M786.7,514.88c-.81,0-1.65.06-2.54.17-.88.12-1.47.24-1.75.34l.22,2.47h3.51c2.23,0,4.17.86,5.84,2.58,1.66,1.71,2.5,4.71,2.5,8.97v5.02h-14.11v2.99h17.46v-8.09c0-5.11-1.07-8.79-3.2-11.06-2.13-2.26-4.77-3.4-7.92-3.4"/>
  <path class="cls-2" d="M989.82,534.44h-20.07v-9.04c0-1.06-.14-2.52-.41-4.37-.28-1.85-.6-3.6-.97-5.24l-2.74.13c.2,1.68.38,3.34.54,5,.15,1.65.23,3.04.23,4.13v9.39h-4.55c-.67,0-1.33-.15-2-.45-.67-.3-1.21-.65-1.65-1.02.4-1.3.6-2.83.6-4.59v-10.43h-3.34v10.47c0,1.73-.3,3.16-.89,4.3-.6,1.14-1.55,1.71-2.89,1.71h-4.3v-16.49h-3.35v16.49h-26.54c-1.79,0-3.56-.34-5.29-1.04,1.5-1.12,2.82-2.41,3.93-3.89,1.12-1.47,1.96-2.92,2.54-4.35.58-1.42.9-2.71.96-3.83l.13-3.07c-3.79-1.94-7.4-2.9-10.81-2.9s-7.02.96-10.73,2.9l.13,3.07c.07,1.76.76,3.8,2.09,6.11,1.33,2.3,3.11,4.31,5.34,6.01-1.77.67-3.53,1-5.29,1h-79.1v-18.65c-1.07-.2-2.42-.39-4.06-.56-1.63-.17-3.03-.26-4.18-.26-2.44,0-4.33.43-5.69,1.32-1.36.88-2.3,2.17-2.82,3.85-.52,1.69-.78,3.88-.78,6.56,0,3.17.51,5.75,1.55,7.75,1.02,1.98,3.11,2.99,6.27,2.99h6.38c0,2.19-.19,3.85-.56,4.97-.37,1.13-.87,1.87-1.5,2.23-.62.36-1.44.54-2.45.54-1.53,0-3.65-.2-6.34-.61v2.95c3.04.44,5.22.65,6.55.65,2.52,0,4.37-.87,5.54-2.64,1.17-1.76,1.84-4.46,2.02-8.09h79.32c1.41,0,2.85-.18,4.32-.54,1.46-.36,2.81-.85,4.06-1.45,1.24.64,2.62,1.12,4.12,1.47,1.51.35,2.98.52,4.43.52h35.19c1.71,0,3.08-.61,4.13-1.82,1.44,1.21,3.05,1.82,4.81,1.82h31.49v-31.07h-3.34v28.09ZM818.05,534.44h-5.13c-2.31,0-3.85-.73-4.6-2.19-.75-1.45-1.13-3.34-1.13-5.65,0-1.95.2-3.57.59-4.82.39-1.25,1.08-2.21,2.06-2.86.99-.65,2.36-.98,4.13-.98,1.16,0,2.52.1,4.08.31v16.18ZM909,531.8c-2.23-1.41-4.01-3.15-5.34-5.22-1.33-2.05-2-4.27-2-6.64,2.9-1.07,5.34-1.6,7.34-1.6s4.52.53,7.38,1.6c0,2.34-.68,4.55-2.03,6.62-1.37,2.08-3.14,3.83-5.34,5.24"/>
  <rect class="cls-2" x="1000.97" y="506.36" width="3.34" height="31.06"/>
  <rect class="cls-2" x="1026.5" y="508.13" width="3.3" height="3.63"/>
  <path class="cls-2" d="M1085.34,518.74h-10.5l1.65-3.21c.55-1.06,1.16-2.14,1.82-3.23.67-1.08,1.67-2.61,3-4.6l-2.39-1.35c-1.07,1.3-2.13,2.69-3.19,4.19-1.06,1.48-1.84,2.74-2.37,3.78l-2.25,4.41,2.21,2.98h11.76c1.5.03,2.58.68,3.23,1.95.66,1.27.98,2.77.98,4.5v6.27h-59.41v-18.61h-3.34v22.89c0,2.05-.36,3.64-1.07,4.78-.71,1.14-1.78,1.71-3.23,1.71-.38,0-1.29-.06-2.74-.17v2.94l.91.09c.29.03.64.05,1.03.08.39.03.82.05,1.28.05,4.77,0,7.16-3.44,7.16-10.31v-.47h62.75v-9.22c0-2.8-.58-5.08-1.76-6.84-1.17-1.77-3.02-2.64-5.54-2.64"/>
  <path class="cls-2" d="M1171.67,534.44h-19.51c-1.39,0-2.55-.54-3.47-1.65v-6.18c0-4.04-.83-6.92-2.52-8.66s-4.28-2.59-7.82-2.59c-1.47,0-2.87.12-4.2.36-1.34.25-2.35.51-3.04.8-.29,1.18-.55,2.72-.78,4.6-.23,1.9-.35,3.8-.35,5.74,0,2.56.2,5.09.61,7.57h-23.23v-18.61h-3.35v22.89c0,2.05-.35,3.64-1.06,4.78-.71,1.14-1.79,1.71-3.24,1.71-.37,0-1.28-.06-2.73-.17v2.94l.91.09c.29.03.62.05,1.02.08.39.03.82.05,1.28.05,4.78,0,7.17-3.44,7.17-10.31v-.47h41.33v-1.69c.52.52,1.1.93,1.72,1.23.62.31,1.21.45,1.76.45h22.85v-31.07h-3.34v28.09ZM1145.35,534.44h-11.42c-.14-.84-.28-1.96-.42-3.35-.13-1.4-.19-2.8-.19-4.22,0-2.88.23-5.58.69-8.09,1.1-.29,2.36-.43,3.78-.43,2.54,0,4.44.64,5.68,1.91,1.25,1.26,1.87,3.37,1.87,6.32v7.87Z"/>
  <rect class="cls-2" x="1182.83" y="506.36" width="3.34" height="31.06"/>
  <path class="cls-2" d="M136.22,599.59c4.76,0,7.99-1.91,7.99-5.7,0-3.44-2.81-5.05-7.11-6.24l-2.38-.65c-5.53-1.57-8.18-4.56-8.18-8.65,0-5.05,4.65-7.65,10.14-7.65,3.84,0,7.72,1.07,10.37,2.71l-1.42,2.84c-2.34-1.53-5.68-2.52-9.02-2.52-3.53,0-6.68,1.38-6.68,4.52,0,2.94,2.04,4.55,5.99,5.7l2.57.73c4.69,1.3,9.14,3.83,9.14,9.11,0,5.7-4.46,8.84-11.36,8.84-3.95,0-7.99-1.11-10.63-2.72l1.45-2.87c2.3,1.45,5.77,2.56,9.14,2.56"/>
  <path class="cls-2" d="M153.21,595.99c0-4.86,4.14-6.92,10.29-6.92,1.19,0,2.81.16,4.57.38v-.5c0-3.67-2.08-5.05-5.88-5.05-2.26,0-5.11.91-7.03,1.91l.5-3.44c2.03-.84,4.22-1.49,6.91-1.49,5.45,0,8.6,2.3,8.6,7.96v12.17c-2.34.96-5.41,1.61-8.37,1.61-4.99,0-9.6-1.65-9.6-6.62M168.07,592.39c-1.15-.27-3.07-.46-4.57-.46-3.41,0-6.99.65-6.99,3.95,0,2.91,3.04,3.71,6.26,3.71,1.84,0,3.76-.34,5.3-.92v-6.27Z"/>
  <path class="cls-2" d="M192.01,581.4h3.11v19.75c-2.73.88-5.5,1.45-8.49,1.45-5.3,0-8.8-1.68-8.8-8.61v-12.59h3.11v11.29c0,5.48,1.43,6.89,5.69,6.89,1.57,0,3.3-.19,5.37-.8v-17.38Z"/>
  <path class="cls-2" d="M216.64,571.15h3.11v30.43c-2.22.65-4.95,1.03-7.29,1.03-8.02,0-12.1-4.75-12.1-10.8s4.15-10.94,11.95-10.94c1.08,0,2.58.15,4.34.46v-10.18ZM212.37,599.59c1.26,0,2.69-.23,4.26-.57v-14.55c-1.8-.46-3.14-.58-4.26-.58-5.68,0-8.72,2.99-8.72,7.92s3.04,7.77,8.72,7.77"/>
  <path class="cls-2" d="M230.97,574.56c0,1.22-1,2.06-2.19,2.06s-2.19-.84-2.19-2.06.95-2.07,2.19-2.07,2.19.88,2.19,2.07M227.21,581.4h3.11v20.79h-3.11v-20.79Z"/>
  <path class="cls-2" d="M252.11,586.65c0,8.38,5.84,12.94,12.52,12.94,3.41,0,6.41-.96,8.71-2.37l1.3,2.79c-2.65,1.61-6.22,2.6-10.1,2.6-9.79,0-15.9-6.97-15.9-15.96s6.11-15.96,15.9-15.96c3.88,0,7.45.96,10.1,2.56l-1.3,2.8c-2.3-1.42-5.3-2.34-8.71-2.34-6.68,0-12.52,4.52-12.52,12.94"/>
  <path class="cls-2" d="M296.09,597.68l1.43,2.79c-2.15,1.19-4.76,2.14-8.72,2.14-6.3,0-10.91-4.66-10.91-10.87s4.76-10.87,10.75-10.87,10.45,4.25,10.37,11.72h-17.89c.34,4.25,3.38,7.01,7.72,7.01,3.15,0,5.49-.84,7.25-1.91M281.27,589.83h14.32c-.42-3.79-3.19-5.93-6.99-5.93-4.07,0-6.68,2.33-7.33,5.93"/>
  <path class="cls-2" d="M304.17,581.87c3.07-.58,6.41-1,8.83-1,5.3,0,9.06,1.69,9.06,8.62v12.7h-3.11v-11.4c0-5.47-2.19-6.88-6.14-6.88-1.54,0-3.46.19-5.53.61v17.68h-3.11v-20.32Z"/>
  <path class="cls-2" d="M326.19,581.4h4.38v-7.73h3.11v7.73h8.6v2.91h-8.6v9.72c0,3.95,1.23,5.24,4.73,5.24h4.07v2.91h-4.11c-4.91,0-7.79-1.65-7.79-6.74v-11.13h-4.38v-2.91Z"/>
  <path class="cls-2" d="M363.33,597.68l1.43,2.79c-2.15,1.19-4.76,2.14-8.72,2.14-6.3,0-10.91-4.66-10.91-10.87s4.76-10.87,10.75-10.87,10.45,4.25,10.37,11.72h-17.89c.34,4.25,3.38,7.01,7.72,7.01,3.15,0,5.49-.84,7.25-1.91M348.51,589.83h14.32c-.42-3.79-3.19-5.93-6.99-5.93-4.07,0-6.68,2.33-7.33,5.93"/>
  <path class="cls-2" d="M382.24,584.24h-3.07c-1.3,0-3.65.27-4.65.65v17.3h-3.11v-19.94c2.03-.49,4.91-.96,7.14-.96h3.69v2.95Z"/>
  <polygon class="cls-2" points="400.3 602.19 400.3 571.15 418.65 571.15 418.65 574.17 403.52 574.17 403.52 584.58 417.12 584.58 417.12 587.64 403.52 587.64 403.52 602.19 400.3 602.19"/>
  <path class="cls-2" d="M420.55,591.78c0-6.05,4.68-10.91,10.83-10.91s10.87,4.87,10.87,10.91-4.72,10.83-10.87,10.83-10.83-4.82-10.83-10.83M438.9,591.78c0-4.29-2.95-7.88-7.53-7.88s-7.52,3.6-7.52,7.88,3,7.81,7.52,7.81,7.53-3.56,7.53-7.81"/>
  <path class="cls-2" d="M458.31,584.24h-3.07c-1.3,0-3.65.27-4.65.65v17.3h-3.11v-19.94c2.03-.49,4.91-.96,7.14-.96h3.69v2.95Z"/>
  <rect class="cls-2" x="476.37" y="571.15" width="3.23" height="31.04"/>
  <path class="cls-2" d="M487.94,581.87c3.07-.58,6.41-1,8.83-1,5.3,0,9.06,1.69,9.06,8.62v12.7h-3.11v-11.4c0-5.47-2.19-6.88-6.14-6.88-1.54,0-3.46.19-5.53.61v17.68h-3.11v-20.32Z"/>
  <path class="cls-2" d="M509.96,581.4h4.38v-7.73h3.11v7.73h8.6v2.91h-8.6v9.72c0,3.95,1.23,5.24,4.73,5.24h4.07v2.91h-4.11c-4.91,0-7.79-1.65-7.79-6.74v-11.13h-4.38v-2.91Z"/>
  <path class="cls-2" d="M547.09,597.68l1.43,2.79c-2.15,1.19-4.76,2.14-8.72,2.14-6.3,0-10.91-4.66-10.91-10.87s4.76-10.87,10.75-10.87,10.45,4.25,10.37,11.72h-17.89c.34,4.25,3.38,7.01,7.72,7.01,3.15,0,5.49-.84,7.25-1.91M532.27,589.83h14.32c-.42-3.79-3.19-5.93-6.99-5.93-4.07,0-6.68,2.33-7.33,5.93"/>
  <path class="cls-2" d="M566.01,584.24h-3.07c-1.3,0-3.65.27-4.65.65v17.3h-3.11v-19.94c2.03-.49,4.91-.96,7.14-.96h3.69v2.95Z"/>
  <path class="cls-2" d="M570.89,581.87c3.07-.58,6.41-1,8.83-1,5.3,0,9.06,1.69,9.06,8.62v12.7h-3.11v-11.4c0-5.47-2.19-6.88-6.14-6.88-1.54,0-3.46.19-5.53.61v17.68h-3.11v-20.32Z"/>
  <path class="cls-2" d="M594.67,595.99c0-4.86,4.15-6.92,10.29-6.92,1.19,0,2.81.16,4.57.38v-.5c0-3.67-2.08-5.05-5.88-5.05-2.26,0-5.11.91-7.03,1.91l.5-3.44c2.03-.84,4.22-1.49,6.91-1.49,5.46,0,8.61,2.3,8.61,7.96v12.17c-2.35.96-5.42,1.61-8.37,1.61-4.99,0-9.61-1.65-9.61-6.62M609.53,592.39c-1.15-.27-3.07-.46-4.57-.46-3.41,0-6.99.65-6.99,3.95,0,2.91,3.04,3.71,6.26,3.71,1.84,0,3.76-.34,5.3-.92v-6.27Z"/>
  <path class="cls-2" d="M616.77,581.4h4.38v-7.73h3.11v7.73h8.6v2.91h-8.6v9.72c0,3.95,1.23,5.24,4.72,5.24h4.07v2.91h-4.11c-4.91,0-7.79-1.65-7.79-6.74v-11.13h-4.38v-2.91Z"/>
  <path class="cls-2" d="M642.47,574.56c0,1.22-1,2.06-2.19,2.06s-2.19-.84-2.19-2.06.96-2.07,2.19-2.07,2.19.88,2.19,2.07M638.7,581.4h3.11v20.79h-3.11v-20.79Z"/>
  <path class="cls-2" d="M647.04,591.78c0-6.05,4.68-10.91,10.83-10.91s10.87,4.87,10.87,10.91-4.72,10.83-10.87,10.83-10.83-4.82-10.83-10.83M665.39,591.78c0-4.29-2.95-7.88-7.53-7.88s-7.52,3.6-7.52,7.88,3,7.81,7.52,7.81,7.53-3.56,7.53-7.81"/>
  <path class="cls-2" d="M673.97,581.87c3.07-.58,6.41-1,8.83-1,5.3,0,9.06,1.69,9.06,8.62v12.7h-3.11v-11.4c0-5.47-2.19-6.88-6.14-6.88-1.54,0-3.46.19-5.53.61v17.68h-3.11v-20.32Z"/>
  <path class="cls-2" d="M697.75,595.99c0-4.86,4.14-6.92,10.29-6.92,1.19,0,2.81.16,4.57.38v-.5c0-3.67-2.08-5.05-5.88-5.05-2.26,0-5.11.91-7.03,1.91l.5-3.44c2.03-.84,4.22-1.49,6.91-1.49,5.46,0,8.61,2.3,8.61,7.96v12.17c-2.35.96-5.42,1.61-8.37,1.61-4.99,0-9.6-1.65-9.6-6.62M712.62,592.39c-1.15-.27-3.07-.46-4.57-.46-3.41,0-6.99.65-6.99,3.95,0,2.91,3.04,3.71,6.26,3.71,1.84,0,3.76-.34,5.3-.92v-6.27Z"/>
  <rect class="cls-2" x="723.04" y="571.15" width="3.11" height="31.04"/>
  <path class="cls-4" d="M757.81,584.37l-2.57-.73c-4.11-1.19-5.78-2.76-5.78-5.42,0-3.11,3.3-4.22,6.38-4.22s6.49.92,8.87,2.47l.28.19,1.69-3.37-.23-.14c-2.78-1.73-6.72-2.76-10.53-2.76-5.2,0-10.44,2.46-10.44,7.95,0,4.35,2.83,7.35,8.4,8.93l2.38.65c4.89,1.35,6.88,3.08,6.88,5.96,0,3.44-2.8,5.4-7.69,5.4-3.08,0-6.52-.97-8.98-2.52l-.28-.17-1.73,3.41.23.14c2.81,1.71,6.94,2.76,10.79,2.76,7.31,0,11.67-3.42,11.67-9.14,0-4.5-3.15-7.67-9.36-9.39"/>
  <path class="cls-4" d="M778.47,594.04v-9.43h8.6v-3.5h-8.6v-7.73h-3.71v7.73h-4.38v3.5h4.38v10.84c0,4.86,2.49,7.03,8.09,7.03h4.41v-3.5h-4.37c-3.35,0-4.43-1.21-4.43-4.95"/>
  <path class="cls-4" d="M792.54,581.96l-.23.06v20.47h3.71v-17.38c1.02-.33,3.09-.57,4.35-.57h3.37v-3.54h-3.99c-2.4,0-5.38.52-7.21.97"/>
  <path class="cls-4" d="M816.28,580.57c-2.97,0-5.31.81-7.02,1.52l-.16.07-.6,4.18.51-.27c1.81-.93,4.63-1.88,6.89-1.88,3.86,0,5.58,1.47,5.58,4.76v.16c-1.84-.24-3.24-.35-4.27-.35-6.83,0-10.59,2.56-10.59,7.22,0,4.4,3.61,6.92,9.9,6.92,2.86,0,5.95-.6,8.49-1.63l.19-.08v-12.37c0-5.56-2.91-8.26-8.91-8.26M821.47,592.63v5.83c-1.5.53-3.31.82-5,.82-2.72,0-5.96-.59-5.96-3.41,0-2.46,2.19-3.65,6.69-3.65,1.39,0,3.13.17,4.27.4"/>
  <path class="cls-4" d="M836.79,594.04v-9.43h8.6v-3.5h-8.6v-7.73h-3.71v7.73h-4.38v3.5h4.38v10.84c0,4.86,2.5,7.03,8.1,7.03h4.41v-3.5h-4.37c-3.35,0-4.43-1.21-4.43-4.95"/>
  <path class="cls-4" d="M858.69,580.57c-6.3,0-11.05,4.8-11.05,11.17s4.82,11.17,11.21,11.17c4.35,0,7.02-1.17,8.86-2.18l.25-.14-1.7-3.33-.28.16c-2.04,1.24-4.43,1.87-7.1,1.87-4.07,0-6.94-2.51-7.39-6.42h17.86v-.29c.04-3.82-1.07-6.96-3.2-9.11-1.89-1.9-4.47-2.91-7.47-2.91M851.69,589.53c.75-3.35,3.33-5.34,6.97-5.34s6.14,1.99,6.65,5.34h-13.62Z"/>
  <path class="cls-4" d="M884.86,580.57c-7.53,0-12.39,4.3-12.39,10.98s4.8,11.13,12.24,11.13c1.17,0,2.6-.13,4.04-.36v.38c0,4.09-3.41,4.94-6.27,4.94-2.28,0-5.49-.96-7.27-1.88l-.49-.25.46,4.16.16.07c2.08.94,5.18,1.37,7.19,1.37,6.96,0,9.94-2.65,9.94-8.87v-20.55l-.22-.06c-2.24-.66-5-1.04-7.38-1.04M888.75,598.55c-1.42.34-2.69.5-3.97.5-5.43,0-8.42-2.66-8.42-7.5s2.99-7.36,8.42-7.36c1.06,0,2.32.16,3.97.51v13.85Z"/>
  <path class="cls-4" d="M901.2,572.19c-1.42,0-2.49,1.02-2.49,2.36s1.07,2.37,2.49,2.37,2.49-1.02,2.49-2.37-1.07-2.36-2.49-2.36"/>
  <rect class="cls-4" x="899.32" y="581.11" width="3.71" height="21.38"/>
  <path class="cls-4" d="M918.79,584.19c2.21,0,4.02.47,5.68,1.49l.29.17,1.6-3.39-.25-.13c-2.28-1.2-4.63-1.76-7.4-1.76-6.3,0-11.06,4.82-11.06,11.21s4.76,11.13,11.06,11.13c2.76,0,5.12-.56,7.4-1.76l.25-.14-1.6-3.39-.29.17c-1.67,1.01-3.47,1.49-5.68,1.49-4.26,0-7.23-3.09-7.23-7.51s2.97-7.59,7.23-7.59"/>
  <path class="cls-4" d="M954.9,570.85h-10.81v31.63h3.81v-12.67h7c8.32,0,11.28-5.23,11.28-9.71s-2.97-9.25-11.28-9.25M962.17,580.14c0,4.02-2.7,6.06-8.03,6.06h-6.24v-11.74h6.24c5.33,0,8.03,1.91,8.03,5.68"/>
  <path class="cls-4" d="M976.81,580.57c-2.98,0-5.32.81-7.03,1.52l-.16.07-.6,4.18.51-.27c1.81-.93,4.63-1.88,6.89-1.88,3.86,0,5.58,1.47,5.58,4.76v.16c-1.84-.24-3.24-.35-4.27-.35-6.83,0-10.59,2.56-10.59,7.22,0,4.4,3.61,6.92,9.9,6.92,2.86,0,5.95-.6,8.48-1.63l.19-.08v-12.37c0-5.56-2.92-8.26-8.9-8.26M982,592.63v5.83c-1.5.53-3.31.82-5,.82-2.72,0-5.96-.59-5.96-3.41,0-2.46,2.19-3.65,6.69-3.65,1.39,0,3.13.17,4.27.4"/>
  <path class="cls-4" d="M992.64,581.96l-.23.06v20.47h3.71v-17.38c1.02-.33,3.09-.57,4.35-.57h3.37v-3.54h-3.99c-2.4,0-5.38.52-7.21.97"/>
  <path class="cls-4" d="M1013.03,594.04v-9.43h8.6v-3.5h-8.6v-7.73h-3.71v7.73h-4.38v3.5h4.38v10.84c0,4.86,2.49,7.03,8.09,7.03h4.41v-3.5h-4.37c-3.35,0-4.43-1.21-4.43-4.95"/>
  <path class="cls-4" d="M1036.01,580.57c-2.25,0-5.49.36-8.89,1.01l-.24.05v20.86h3.7v-17.74c1.86-.36,3.67-.56,5.24-.56,3.61,0,5.85,1.1,5.85,6.59v11.7h3.71v-13c0-7.9-5-8.92-9.36-8.92"/>
  <path class="cls-4" d="M1060.9,580.57c-6.3,0-11.05,4.8-11.05,11.17s4.82,11.17,11.21,11.17c4.35,0,7.02-1.17,8.86-2.18l.25-.14-1.69-3.33-.28.16c-2.04,1.24-4.43,1.87-7.11,1.87-4.06,0-6.93-2.51-7.38-6.42h17.86v-.29c.04-3.82-1.07-6.96-3.2-9.11-1.89-1.9-4.47-2.91-7.47-2.91M1053.9,589.53c.75-3.35,3.34-5.34,6.97-5.34s6.14,1.99,6.65,5.34h-13.62Z"/>
  <path class="cls-4" d="M1076.36,581.96l-.23.06v20.47h3.71v-17.38c1.01-.33,3.09-.57,4.35-.57h3.37v-3.54h-3.99c-2.4,0-5.38.52-7.21.97"/>
  <path class="cls-4" d="M1100.12,589.8l-1.53-.31c-3.42-.73-4.41-1.4-4.41-2.96,0-2.04,2.75-2.34,4.39-2.34,2.67,0,5.01.54,6.96,1.61l.29.15,1.47-3.38-.24-.13c-2.23-1.22-5.13-1.87-8.36-1.87-4.9,0-8.32,2.45-8.32,5.96s2.23,5.38,7.46,6.45l1.69.34c3.69.75,4.44,1.84,4.44,3.23,0,1.81-1.8,2.72-5.34,2.72-2.19,0-5.13-.82-6.99-1.94l-.29-.18-1.55,3.59.24.12c2.42,1.31,5.46,2.03,8.55,2.03,5.66,0,9.32-2.46,9.32-6.27s-2.25-5.74-7.77-6.84"/>
  <path class="cls-4" d="M1122.27,580.57c-1.39,0-3.16.16-5.43.49v-10.21h-3.7v31.63h3.7v-17.74c1.86-.36,3.67-.56,5.24-.56,3.61,0,5.85,1.1,5.85,6.59v11.7h3.71v-13c0-7.9-5-8.92-9.36-8.92"/>
  <rect class="cls-4" x="1138.34" y="581.11" width="3.71" height="21.38"/>
  <path class="cls-4" d="M1140.21,572.19c-1.42,0-2.49,1.02-2.49,2.36s1.07,2.37,2.49,2.37,2.49-1.02,2.49-2.37-1.07-2.36-2.49-2.36"/>
  <path class="cls-4" d="M1156.53,580.57c-2.36,0-5.13.4-7.42,1.05l-.22.06v29.23h3.71v-8.4c1.59.26,3.03.4,4.08.4,7.32,0,12.25-4.52,12.25-11.24s-4.87-11.1-12.4-11.1M1152.61,598.78v-14.07c1.75-.36,2.92-.52,4-.52,5.43,0,8.41,2.65,8.41,7.47s-2.98,7.63-8.41,7.63c-1.26,0-2.54-.17-4-.51"/>
  <path class="cls-4" d="M1182.61,589.8l-1.53-.31c-3.42-.73-4.41-1.4-4.41-2.96,0-2.04,2.75-2.34,4.39-2.34,2.67,0,5.01.54,6.96,1.61l.29.15,1.47-3.38-.24-.13c-2.23-1.22-5.13-1.87-8.36-1.87-4.9,0-8.32,2.45-8.32,5.96s2.23,5.38,7.46,6.45l1.69.34c3.69.75,4.45,1.84,4.45,3.23,0,1.81-1.8,2.72-5.34,2.72-2.19,0-5.13-.82-7-1.94l-.29-.18-1.55,3.59.24.12c2.42,1.31,5.46,2.03,8.55,2.03,5.66,0,9.32-2.46,9.32-6.27s-2.25-5.74-7.77-6.84"/>
</svg>