<?xml version="1.0" encoding="iso-8859-1"?>
<!-- Generator: Adobe Illustrator 23.0.1, SVG Export Plug-In . SVG Version: 6.00 Build 0)  -->
<svg version="1.1" id="Layer_1" xmlns="http://www.w3.org/2000/svg" xmlns:xlink="http://www.w3.org/1999/xlink" x="0px" y="0px"
	 viewBox="0 0 512 512" style="enable-background:new 0 0 512 512;" xml:space="preserve">
<g>
	<path style="fill:#09594F;" d="M82.744,211.001c0-17.998,12.996-30.144,29.846-30.144c12.239,0,19.365,6.905,23.306,14.242
		l-10.228,5.242c-2.349-4.717-7.38-8.473-13.078-8.473c-10.23,0-17.607,8.124-17.607,19.133c0,11.009,7.377,19.136,17.607,19.136
		c5.698,0,10.729-3.758,13.078-8.475l10.228,5.155c-3.941,7.253-11.067,14.329-23.306,14.329
		C95.74,241.146,82.744,228.912,82.744,211.001"/>
	<polygon style="fill:#09594F;" points="173.325,181.819 158.402,181.819 138.799,240.097 150.351,240.097 165.863,194.227 
		174.584,219.301 164.076,219.301 160.386,230.223 177.851,230.223 181.372,240.097 192.825,240.097 	"/>
	<path style="fill:#09594F;" d="M36.81,222.185c3.941,4.281,10.059,7.95,17.771,7.95c6.625,0,9.726-3.056,9.726-6.464
		c0-10.135-32.193-3.059-32.193-24.987c0-9.7,8.048-17.739,21.213-17.739c7.499,0,13.925,1.993,19.072,5.82l-3.901,11.568
		c-4.524-4.368-10.563-6.379-16.261-6.379c-5.031,0-7.884,2.273-7.884,5.767c0,9.175,32.111,2.969,32.111,24.726
		c0,10.66-7.377,18.7-22.385,18.7c-9.219,0-16.185-2.732-21.31-6.947C33.477,232.106,36.81,222.185,36.81,222.185"/>
	<path style="fill:#09594F;" d="M36.878,279.968c0-0.195,0.066-0.359,0.198-0.475c0.132-0.121,0.28-0.177,0.449-0.177h1.241
		c0.164,0,0.311,0.055,0.433,0.177c0.121,0.116,0.185,0.28,0.185,0.475v1.597c0,0.182-0.063,0.327-0.185,0.446
		c-0.121,0.119-0.274,0.177-0.465,0.177h-1.209c-0.185,0-0.338-0.058-0.465-0.177c-0.121-0.119-0.182-0.264-0.182-0.446V279.968z
		 M33.098,287.905c0.306,0,0.446,0.195,0.428,0.591c-0.016,0.237-0.042,0.488-0.071,0.755c-0.029,0.269-0.05,0.533-0.071,0.8
		c-0.016,0.269-0.032,0.517-0.037,0.755c-0.013,0.235-0.021,0.433-0.021,0.594c0,1.024,0.074,1.977,0.214,2.856
		c0.143,0.879,0.449,1.642,0.913,2.28c0.462,0.641,1.127,1.146,1.987,1.512c0.86,0.364,2.011,0.546,3.452,0.546
		c0.491,0,0.942-0.011,1.349-0.029c0.409-0.024,0.85-0.079,1.322-0.179c0-0.53,0.003-1.011,0.016-1.433
		c0.008-0.428,0.013-0.826,0.013-1.201v-1.095v-1.153v-8.831c0-0.153,0.05-0.285,0.153-0.396c0.106-0.105,0.224-0.161,0.359-0.161
		h1.391c0.15,0,0.269,0.055,0.356,0.161c0.082,0.111,0.124,0.243,0.124,0.396v8.86h2.645v2.544h-2.645v0.99v1.098
		c0,0.367-0.003,0.713-0.011,1.053c-0.013,0.335-0.024,0.62-0.048,0.858c0,0.314-0.195,0.523-0.594,0.62
		c-0.721,0.161-1.457,0.275-2.212,0.343c-0.763,0.069-1.52,0.103-2.278,0.103c-1.647,0-3.035-0.195-4.162-0.581
		c-1.127-0.38-2.038-0.95-2.726-1.702c-0.692-0.75-1.188-1.668-1.491-2.766c-0.306-1.098-0.454-2.347-0.454-3.745
		c0-0.179,0.008-0.43,0.026-0.76c0.018-0.322,0.045-0.67,0.074-1.048c0.026-0.375,0.058-0.747,0.095-1.109
		c0.04-0.367,0.084-0.684,0.143-0.963c0.037-0.219,0.098-0.367,0.172-0.443c0.077-0.082,0.209-0.119,0.396-0.119H33.098z"/>
	<path style="fill:#09594F;" d="M47.451,296.077c-0.267,0-0.494-0.034-0.681-0.103c-0.193-0.069-0.29-0.174-0.29-0.314v-1.745
		c0-0.119,0.098-0.214,0.29-0.282c0.187-0.069,0.414-0.105,0.681-0.105h6.279v2.549H47.451z"/>
	<path style="fill:#09594F;" d="M53.561,296.077c-0.267,0-0.494-0.034-0.681-0.103c-0.19-0.069-0.29-0.174-0.29-0.314v-1.745
		c0-0.119,0.1-0.214,0.29-0.282c0.187-0.069,0.414-0.105,0.681-0.105h6.279v2.549H53.561z"/>
	<path style="fill:#09594F;" d="M64.837,299.48c0-0.195,0.074-0.354,0.216-0.47c0.14-0.119,0.298-0.179,0.465-0.179h1.111
		c0.169,0,0.319,0.061,0.454,0.179c0.135,0.116,0.201,0.275,0.201,0.47v1.602c0,0.156-0.066,0.298-0.201,0.43
		c-0.135,0.124-0.285,0.19-0.454,0.19h-1.111c-0.166,0-0.325-0.066-0.465-0.19c-0.143-0.132-0.216-0.275-0.216-0.43V299.48z
		 M60.207,299.48c0-0.195,0.061-0.354,0.182-0.47c0.127-0.119,0.28-0.179,0.472-0.179h1.109c0.187,0,0.343,0.061,0.465,0.179
		c0.127,0.116,0.19,0.275,0.19,0.47v1.602c0,0.156-0.069,0.298-0.201,0.43c-0.132,0.124-0.288,0.19-0.454,0.19h-1.109
		c-0.193,0-0.346-0.066-0.472-0.19c-0.121-0.132-0.182-0.275-0.182-0.43V299.48z M58.7,293.913c0-0.119,0.095-0.211,0.285-0.28
		c0.19-0.071,0.417-0.103,0.686-0.103h1.275c0.19,0,0.401-0.013,0.628-0.029c0.224-0.021,0.441-0.066,0.652-0.135
		c0.206-0.069,0.38-0.179,0.528-0.325c0.137-0.15,0.209-0.351,0.209-0.61v-7.757c0-0.158,0.053-0.29,0.156-0.401
		c0.103-0.106,0.232-0.161,0.385-0.161h1.306c0.15,0,0.282,0.055,0.383,0.161c0.106,0.111,0.158,0.243,0.158,0.401v8.143
		c0.055,0.156,0.174,0.282,0.356,0.37c0.174,0.092,0.375,0.161,0.596,0.208c0.214,0.05,0.436,0.085,0.662,0.106
		c0.23,0.016,0.43,0.029,0.599,0.029h0.399v2.547h-0.343c-0.589,0-1.214-0.063-1.887-0.195c-0.676-0.127-1.227-0.391-1.66-0.784
		c-0.475,0.393-1.04,0.657-1.694,0.784c-0.652,0.132-1.243,0.195-1.776,0.195h-0.932c-0.269,0-0.496-0.034-0.686-0.103
		c-0.19-0.071-0.285-0.177-0.285-0.314V293.913z"/>
	<path style="fill:#09594F;" d="M67.796,296.077c-0.267,0-0.494-0.034-0.681-0.103c-0.19-0.069-0.29-0.174-0.29-0.314v-1.745
		c0-0.119,0.1-0.214,0.29-0.282c0.187-0.069,0.414-0.105,0.681-0.105h6.279v2.549H67.796z"/>
	<path style="fill:#09594F;" d="M73.903,296.077c-0.267,0-0.494-0.034-0.681-0.103c-0.19-0.069-0.285-0.174-0.285-0.314v-1.745
		c0-0.119,0.095-0.214,0.285-0.282c0.187-0.069,0.414-0.105,0.681-0.105h6.279v2.549H73.903z"/>
	<path style="fill:#09594F;" d="M79.045,293.914c0-0.119,0.098-0.211,0.285-0.282c0.193-0.069,0.417-0.103,0.681-0.103h2.275
		c0.549,0,0.892-0.047,1.037-0.145c0.14-0.103,0.211-0.409,0.211-0.924v-18.059c0-0.158,0.053-0.296,0.158-0.401
		c0.1-0.108,0.232-0.164,0.383-0.164h1.391c0.15,0,0.277,0.055,0.37,0.164c0.095,0.106,0.145,0.243,0.145,0.401v17.087v0.794
		c0,0.298-0.008,0.604-0.018,0.921c-0.008,0.314-0.024,0.626-0.042,0.919c-0.016,0.293-0.048,0.562-0.084,0.8
		c-0.04,0.198-0.092,0.364-0.169,0.501c-0.077,0.14-0.23,0.256-0.457,0.354c-0.15,0.063-0.367,0.103-0.652,0.135
		c-0.282,0.032-0.599,0.061-0.937,0.09c-0.343,0.029-0.697,0.05-1.066,0.061c-0.37,0.008-0.715,0.013-1.037,0.013h-1.507
		c-0.264,0-0.488-0.032-0.681-0.103c-0.187-0.069-0.285-0.174-0.285-0.311V293.914z"/>
	<path style="fill:#09594F;" d="M98.905,284.882c-0.377-0.039-0.75-0.069-1.106-0.09c-0.359-0.016-0.787-0.029-1.277-0.029
		c-1.251,0-2.243,0.367-2.972,1.095c-0.731,0.731-1.09,1.779-1.09,3.138v0.594c0,1.402,0.282,2.42,0.853,3.049
		c0.565,0.633,1.533,0.95,2.893,0.95c0.742,0,1.378-0.048,1.906-0.15c0.528-0.098,0.794-0.372,0.794-0.826V284.882z M91.066,301.078
		c0-0.274,0.148-0.412,0.454-0.412c0.322,0,0.728,0.008,1.222,0.016c0.491,0.008,0.892,0.013,1.193,0.013
		c0.757,0,1.438-0.042,2.043-0.132c0.61-0.09,1.124-0.259,1.549-0.507c0.428-0.251,0.757-0.597,0.998-1.045
		c0.235-0.446,0.354-1.027,0.354-1.739v-1.76c-0.132,0.121-0.327,0.216-0.581,0.282c-0.256,0.069-0.544,0.129-0.853,0.179
		c-0.314,0.05-0.62,0.079-0.924,0.09c-0.304,0.008-0.57,0.013-0.797,0.013c-1.721,0-3.099-0.515-4.12-1.541
		c-1.021-1.027-1.536-2.576-1.536-4.645v-0.742c0-2.072,0.589-3.711,1.763-4.915c1.175-1.206,2.84-1.808,5.002-1.808
		c0.755,0,1.491,0.034,2.201,0.103c0.713,0.071,1.314,0.182,1.805,0.343c0.187,0.058,0.311,0.119,0.367,0.187
		c0.061,0.071,0.087,0.185,0.087,0.343v13.413c0,1.227-0.169,2.23-0.512,3.02c-0.338,0.789-0.813,1.42-1.42,1.879
		c-0.607,0.47-1.325,0.789-2.159,0.982c-0.834,0.185-1.753,0.28-2.758,0.28c-0.187,0-0.43-0.003-0.723-0.013
		c-0.296-0.013-0.586-0.021-0.879-0.029c-0.296-0.013-0.565-0.026-0.81-0.045c-0.248-0.016-0.42-0.037-0.512-0.058
		c-0.19-0.037-0.311-0.092-0.372-0.161c-0.055-0.069-0.082-0.174-0.082-0.309V301.078z"/>
	<path style="fill:#09594F;" d="M106.125,274.399c0-0.156,0.05-0.293,0.156-0.412c0.103-0.119,0.23-0.182,0.383-0.182h1.394
		c0.15,0,0.275,0.063,0.37,0.182c0.092,0.119,0.14,0.256,0.14,0.412v17.38c0,0.401,0.042,0.71,0.129,0.937
		c0.084,0.227,0.206,0.401,0.364,0.517c0.164,0.119,0.364,0.198,0.599,0.237c0.238,0.037,0.509,0.058,0.813,0.058h0.707v2.55h-1.333
		c-0.61,0-1.14-0.055-1.592-0.166c-0.454-0.108-0.842-0.303-1.164-0.591c-0.322-0.288-0.565-0.665-0.723-1.143
		c-0.161-0.47-0.243-1.082-0.243-1.832V274.399z"/>
	<path style="fill:#09594F;" d="M111.011,296.077c-0.267,0-0.494-0.034-0.681-0.103c-0.19-0.069-0.29-0.174-0.29-0.314v-1.745
		c0-0.119,0.1-0.214,0.29-0.282c0.187-0.069,0.414-0.105,0.681-0.105h6.279v2.549H111.011z"/>
	<path style="fill:#09594F;" d="M117.121,296.077c-0.267,0-0.494-0.034-0.681-0.103c-0.193-0.069-0.285-0.174-0.285-0.314v-1.745
		c0-0.119,0.092-0.214,0.285-0.282c0.187-0.069,0.414-0.105,0.681-0.105h6.279v2.549H117.121z"/>
	<path style="fill:#09594F;" d="M132.547,276.829c0-0.195,0.071-0.356,0.214-0.475c0.143-0.119,0.298-0.179,0.467-0.179h1.106
		c0.174,0,0.325,0.061,0.459,0.179c0.135,0.119,0.195,0.28,0.195,0.475v1.597c0,0.179-0.061,0.327-0.195,0.446
		c-0.135,0.119-0.285,0.179-0.459,0.179h-1.106c-0.169,0-0.325-0.061-0.467-0.179c-0.143-0.119-0.214-0.267-0.214-0.446V276.829z
		 M127.914,276.829c0-0.195,0.061-0.356,0.185-0.475c0.121-0.119,0.28-0.179,0.47-0.179h1.109c0.187,0,0.346,0.061,0.467,0.179
		c0.121,0.119,0.185,0.28,0.185,0.475v1.597c0,0.179-0.066,0.327-0.198,0.446c-0.135,0.119-0.288,0.179-0.454,0.179h-1.109
		c-0.19,0-0.348-0.061-0.47-0.179c-0.124-0.119-0.185-0.267-0.185-0.446V276.829z M134.307,293.589v-8.797
		c-0.375-0.055-0.76-0.098-1.151-0.116c-0.388-0.018-0.829-0.029-1.32-0.029c-1.309,0-2.302,0.343-2.985,1.021
		c-0.681,0.681-1.024,1.702-1.024,3.064v0.62c0,1.362,0.301,2.412,0.897,3.141c0.596,0.731,1.531,1.095,2.8,1.095H134.307z
		 M122.261,293.913c0-0.119,0.095-0.211,0.285-0.28c0.19-0.071,0.417-0.103,0.681-0.103h3.748c-0.491-0.417-0.871-0.969-1.132-1.658
		c-0.267-0.692-0.399-1.531-0.399-2.521v-0.707c0-2.014,0.581-3.574,1.747-4.682c1.164-1.103,2.779-1.655,4.843-1.655
		c0.779,0,1.541,0.034,2.288,0.103c0.747,0.069,1.388,0.182,1.919,0.341c0.19,0.042,0.311,0.098,0.367,0.177
		c0.061,0.079,0.087,0.198,0.087,0.354v10.249h2.444v2.547h-15.913c-0.264,0-0.491-0.034-0.681-0.103
		c-0.19-0.071-0.285-0.177-0.285-0.314V293.913z"/>
	<path style="fill:#09594F;" d="M138.97,296.077c-0.267,0-0.494-0.034-0.681-0.103c-0.19-0.069-0.29-0.174-0.29-0.314v-1.745
		c0-0.119,0.1-0.214,0.29-0.282c0.187-0.069,0.414-0.105,0.681-0.105h6.279v2.549H138.97z"/>
	<path style="fill:#09594F;" d="M145.08,296.077c-0.267,0-0.494-0.034-0.681-0.103s-0.285-0.174-0.285-0.314v-1.745
		c0-0.119,0.098-0.214,0.285-0.282c0.187-0.069,0.414-0.105,0.681-0.105h6.279v2.549H145.08z"/>
	<path style="fill:#09594F;" d="M156.583,289.206v1.365c0,0.649,0.04,1.204,0.116,1.658c0.172,0.829,0.538,1.431,1.106,1.805
		c0.57,0.375,1.309,0.562,2.22,0.562c1.251,0,2.13-0.327,2.642-0.993c0.512-0.662,0.768-1.671,0.768-3.033v-1.365
		c0-1.341-0.253-2.373-0.752-3.093c-0.504-0.72-1.372-1.082-2.602-1.082c-1.251,0-2.146,0.356-2.684,1.066
		C156.855,286.807,156.583,287.844,156.583,289.206 M150.219,293.915c0-0.119,0.095-0.214,0.285-0.282
		c0.19-0.069,0.417-0.103,0.686-0.103h0.905c0.132,0,0.309-0.003,0.528-0.013c0.214-0.011,0.428-0.042,0.636-0.106
		c0.209-0.058,0.393-0.143,0.557-0.251c0.158-0.108,0.261-0.259,0.296-0.462c0.058-0.237,0.084-0.517,0.084-0.855v-2.845
		c0-2.03,0.507-3.592,1.523-4.68c1.014-1.082,2.468-1.626,4.36-1.626c1.892,0,3.326,0.533,4.289,1.597
		c0.969,1.069,1.449,2.637,1.449,4.709v1.66c0,0.237-0.005,0.496-0.011,0.771c-0.011,0.275-0.034,0.52-0.074,0.742
		c0.018,0.277,0.111,0.499,0.285,0.678c0.169,0.179,0.364,0.317,0.583,0.417c0.216,0.098,0.438,0.166,0.665,0.208
		c0.227,0.037,0.417,0.055,0.567,0.055h0.372v2.547h-0.372c-0.623,0-1.233-0.095-1.826-0.282c-0.599-0.187-1.079-0.478-1.438-0.871
		c-0.892,1.341-2.407,2.014-4.545,2.014c-1.061,0-2.003-0.164-2.827-0.488c-0.826-0.33-1.457-0.826-1.892-1.497
		c-0.377,0.454-0.871,0.758-1.475,0.9c-0.607,0.15-1.259,0.224-1.964,0.224h-0.676c-0.269,0-0.496-0.032-0.686-0.103
		c-0.19-0.069-0.285-0.174-0.285-0.314V293.915z"/>
	<path style="fill:#09594F;" d="M168.039,296.077c-0.267,0-0.494-0.034-0.681-0.103c-0.187-0.069-0.29-0.174-0.29-0.314v-1.745
		c0-0.119,0.103-0.214,0.29-0.282c0.187-0.069,0.414-0.105,0.681-0.105h6.279v2.549H168.039z"/>
	<path style="fill:#09594F;" d="M174.147,296.077c-0.267,0-0.494-0.034-0.684-0.103c-0.187-0.069-0.282-0.174-0.282-0.314v-1.745
		c0-0.119,0.095-0.214,0.282-0.282c0.19-0.069,0.417-0.105,0.684-0.105h6.279v2.549H174.147z"/>
	<path style="fill:#09594F;" d="M179.288,293.914c0-0.119,0.095-0.211,0.285-0.282c0.19-0.069,0.417-0.103,0.686-0.103h1.502
		c0.187,0,0.401-0.01,0.628-0.026c0.224-0.021,0.441-0.066,0.652-0.135c0.203-0.071,0.38-0.179,0.525-0.325
		c0.14-0.15,0.211-0.351,0.211-0.61v-18.032c0-0.158,0.053-0.296,0.158-0.401c0.1-0.108,0.23-0.164,0.383-0.164h1.391
		c0.15,0,0.274,0.055,0.372,0.164c0.092,0.106,0.143,0.243,0.143,0.401v18.418c0.053,0.156,0.174,0.282,0.351,0.37
		c0.185,0.092,0.38,0.161,0.599,0.208c0.216,0.05,0.443,0.085,0.668,0.106c0.23,0.016,0.428,0.026,0.594,0.026h0.399v2.547h-0.34
		c-0.285,0-0.586-0.013-0.911-0.045c-0.322-0.029-0.636-0.079-0.95-0.15c-0.311-0.069-0.615-0.166-0.908-0.29
		c-0.293-0.132-0.546-0.29-0.758-0.491c-0.47,0.393-1.032,0.657-1.687,0.781c-0.655,0.135-1.248,0.195-1.776,0.195h-1.246
		c-0.269,0-0.496-0.032-0.686-0.103c-0.19-0.069-0.285-0.174-0.285-0.311V293.914z"/>
	<path style="fill:#09594F;" d="M187.699,293.914c0-0.119,0.095-0.211,0.285-0.282c0.187-0.069,0.417-0.103,0.681-0.103h2.273
		c0.552,0,0.895-0.047,1.04-0.145c0.14-0.103,0.211-0.409,0.211-0.924v-18.059c0-0.158,0.053-0.296,0.158-0.401
		c0.1-0.108,0.23-0.164,0.385-0.164h1.388c0.15,0,0.277,0.055,0.372,0.164c0.092,0.106,0.143,0.243,0.143,0.401v17.087v0.794
		c0,0.298-0.008,0.604-0.018,0.921c-0.008,0.314-0.024,0.626-0.042,0.919c-0.016,0.293-0.048,0.562-0.082,0.8
		c-0.042,0.198-0.095,0.364-0.174,0.501c-0.074,0.14-0.227,0.256-0.454,0.354c-0.15,0.063-0.367,0.103-0.652,0.135
		c-0.282,0.032-0.599,0.061-0.937,0.09c-0.343,0.029-0.697,0.05-1.066,0.061c-0.37,0.008-0.715,0.013-1.037,0.013h-1.507
		c-0.264,0-0.494-0.032-0.681-0.103c-0.19-0.069-0.285-0.174-0.285-0.311V293.914z"/>
	<path style="fill:#09594F;" d="M212.79,276.885c0-0.193,0.069-0.351,0.211-0.472c0.143-0.121,0.298-0.177,0.472-0.177h1.103
		c0.172,0,0.322,0.055,0.457,0.177c0.132,0.121,0.201,0.28,0.201,0.472v1.6c0,0.182-0.069,0.33-0.201,0.446
		c-0.135,0.119-0.285,0.177-0.457,0.177h-1.103c-0.174,0-0.33-0.058-0.472-0.177c-0.143-0.116-0.211-0.264-0.211-0.446V276.885z
		 M208.158,276.885c0-0.193,0.061-0.351,0.182-0.472c0.124-0.121,0.28-0.177,0.472-0.177h1.109c0.187,0,0.343,0.055,0.47,0.177
		c0.119,0.121,0.179,0.28,0.179,0.472v1.6c0,0.182-0.066,0.33-0.198,0.446c-0.132,0.119-0.285,0.177-0.451,0.177h-1.109
		c-0.193,0-0.348-0.058-0.472-0.177c-0.121-0.116-0.182-0.264-0.182-0.446V276.885z M208.097,289.372
		c0,1.188,0.259,2.114,0.771,2.777c0.509,0.662,1.383,0.995,2.613,0.995h0.538c0.285,0,0.578-0.018,0.884-0.055
		c0.301-0.042,0.578-0.121,0.823-0.243c0.243-0.116,0.443-0.28,0.594-0.488c0.15-0.208,0.23-0.47,0.23-0.789v-6.744
		c-0.38-0.04-0.71-0.069-0.998-0.09c-0.28-0.019-0.549-0.029-0.792-0.029c-0.684,0-1.309,0.058-1.874,0.177
		c-0.57,0.119-1.058,0.335-1.467,0.641c-0.401,0.306-0.728,0.723-0.963,1.251c-0.238,0.517-0.359,1.18-0.359,1.972V289.372z
		 M205.714,288.91c0-1.164,0.182-2.164,0.538-2.993c0.359-0.824,0.866-1.504,1.523-2.024c0.649-0.525,1.431-0.911,2.325-1.156
		c0.9-0.245,1.892-0.369,2.972-0.369c0.248,0,0.531,0.01,0.853,0.026c0.319,0.024,0.639,0.053,0.953,0.092
		c0.314,0.04,0.61,0.082,0.895,0.132c0.28,0.048,0.528,0.105,0.736,0.164c0.19,0.04,0.309,0.103,0.356,0.193
		c0.048,0.087,0.071,0.211,0.071,0.372v8.319c0,0.789,0.179,1.299,0.538,1.52c0.362,0.232,0.842,0.343,1.452,0.343h0.652v2.55
		h-0.966c-0.853,0-1.568-0.129-2.143-0.388c-0.578-0.253-1.019-0.699-1.322-1.333c-0.319,0.435-0.821,0.747-1.494,0.932
		c-0.67,0.187-1.407,0.282-2.201,0.282h-0.256c-1.758,0-3.117-0.501-4.062-1.507c-0.945-1.011-1.42-2.468-1.42-4.384V288.91z"/>
	<path style="fill:#09594F;" d="M219.409,296.077c-0.267,0-0.494-0.034-0.681-0.103c-0.19-0.069-0.29-0.174-0.29-0.314v-1.745
		c0-0.119,0.1-0.214,0.29-0.282c0.187-0.069,0.414-0.105,0.681-0.105h6.279v2.549H219.409z"/>
	<path style="fill:#09594F;" d="M225.519,296.077c-0.267,0-0.494-0.034-0.681-0.103c-0.187-0.069-0.29-0.174-0.29-0.314v-1.745
		c0-0.119,0.103-0.214,0.29-0.282c0.187-0.069,0.414-0.105,0.681-0.105h6.279v2.549H225.519z"/>
	<path style="fill:#09594F;" d="M235.406,299.48c0-0.195,0.069-0.354,0.211-0.47c0.143-0.119,0.298-0.179,0.47-0.179h1.111
		c0.166,0,0.319,0.061,0.449,0.179c0.135,0.116,0.201,0.275,0.201,0.47v1.602c0,0.156-0.066,0.298-0.201,0.43
		c-0.129,0.124-0.282,0.19-0.449,0.19h-1.111c-0.172,0-0.327-0.066-0.47-0.19c-0.143-0.132-0.211-0.275-0.211-0.43V299.48z
		 M230.774,299.48c0-0.195,0.063-0.354,0.185-0.47c0.121-0.119,0.277-0.179,0.47-0.179h1.106c0.187,0,0.346,0.061,0.47,0.179
		c0.124,0.116,0.185,0.275,0.185,0.47v1.602c0,0.156-0.066,0.298-0.201,0.43c-0.135,0.124-0.28,0.19-0.454,0.19h-1.106
		c-0.193,0-0.348-0.066-0.47-0.19c-0.121-0.132-0.185-0.275-0.185-0.43V299.48z M230.658,293.913c0-0.119,0.098-0.211,0.285-0.28
		c0.193-0.071,0.42-0.103,0.686-0.103h1.982c0.552,0,0.905-0.05,1.056-0.148c0.15-0.1,0.224-0.409,0.224-0.924v-1.951v-1.834
		c0-0.612-0.003-1.246-0.011-1.898c-0.011-0.652-0.026-1.362-0.042-2.13c0-0.156,0.042-0.296,0.127-0.401
		c0.082-0.111,0.203-0.161,0.354-0.161h1.365c0.172,0,0.301,0.05,0.396,0.161c0.098,0.105,0.143,0.246,0.143,0.401
		c0.021,0.67,0.034,1.235,0.042,1.687c0.013,0.454,0.016,0.884,0.016,1.288v1.243v1.528c0,0.942-0.003,1.827-0.016,2.634
		c-0.008,0.81-0.042,1.439-0.098,1.895c-0.037,0.198-0.098,0.367-0.182,0.501c-0.09,0.137-0.243,0.256-0.47,0.354
		c-0.156,0.063-0.362,0.106-0.626,0.137c-0.264,0.032-0.57,0.061-0.908,0.087c-0.343,0.029-0.691,0.05-1.05,0.061
		c-0.364,0.011-0.705,0.016-1.027,0.016h-1.275c-0.267,0-0.494-0.034-0.686-0.103c-0.187-0.071-0.285-0.177-0.285-0.314V293.913z"/>
	<path style="fill:#09594F;" d="M240.917,294.061c0-0.156,0.058-0.285,0.172-0.385c0.108-0.098,0.243-0.145,0.399-0.145h7.755
		l-0.026-3.642c-0.04-1.737-0.462-3.033-1.267-3.882c-0.802-0.845-2.106-1.272-3.906-1.272c-0.208,0-0.504,0.005-0.879,0.016
		c-0.383,0.01-0.713,0.034-0.995,0.077c-0.377,0.037-0.57-0.103-0.57-0.417v-1.217c0-0.156,0.042-0.282,0.127-0.383
		c0.09-0.1,0.232-0.159,0.443-0.174c0.491-0.082,0.961-0.132,1.404-0.15c0.449-0.018,0.776-0.032,0.979-0.032
		c1.291,0,2.375,0.182,3.254,0.533c0.884,0.356,1.597,0.86,2.146,1.512c0.549,0.649,0.948,1.42,1.193,2.309
		c0.248,0.89,0.391,1.863,0.428,2.93c0,0.082,0.008,0.277,0.013,0.594c0.013,0.317,0.021,0.665,0.029,1.037
		c0.011,0.375,0.016,0.728,0.016,1.066v0.681v0.52c0,0.203-0.005,0.422-0.016,0.649c-0.008,0.23-0.016,0.449-0.029,0.668
		c-0.005,0.217-0.021,0.391-0.04,0.53c0,0.396-0.208,0.591-0.626,0.591h-9.433c-0.156,0-0.29-0.045-0.399-0.129
		c-0.113-0.09-0.172-0.217-0.172-0.372V294.061z"/>
	<path style="fill:#09594F;" d="M257.6,289.59c0,1.402,0.282,2.423,0.853,3.051c0.565,0.631,1.486,0.95,2.753,0.95h2.814v-8.71
		c-0.377-0.039-0.747-0.069-1.109-0.09c-0.359-0.016-0.776-0.029-1.248-0.029c-1.251,0-2.243,0.367-2.972,1.095
		c-0.726,0.734-1.09,1.779-1.09,3.141V289.59z M256.206,301.077c0-0.274,0.148-0.412,0.457-0.412c0.319,0,0.726,0.008,1.219,0.016
		c0.491,0.008,0.892,0.013,1.193,0.013c0.758,0,1.436-0.042,2.03-0.132c0.599-0.09,1.111-0.259,1.536-0.507
		c0.428-0.248,0.752-0.599,0.979-1.045c0.227-0.446,0.354-1.027,0.372-1.742v-1.193h-2.84c-1.916,0-3.386-0.515-4.408-1.539
		c-1.019-1.027-1.536-2.576-1.536-4.648v-0.739c0-2.072,0.589-3.714,1.763-4.917c1.175-1.206,2.84-1.805,5.002-1.805
		c0.755,0,1.491,0.032,2.201,0.103c0.713,0.069,1.314,0.182,1.805,0.343c0.172,0.055,0.285,0.119,0.34,0.187
		c0.055,0.069,0.087,0.182,0.087,0.343v10.127h2.47v2.544h-2.502v1.127c-0.034,1.106-0.224,2.027-0.565,2.769
		c-0.343,0.739-0.808,1.33-1.394,1.776c-0.589,0.441-1.293,0.757-2.117,0.948c-0.823,0.185-1.731,0.282-2.713,0.282
		c-0.19,0-0.433-0.003-0.726-0.016c-0.296-0.011-0.586-0.021-0.879-0.026c-0.296-0.013-0.562-0.029-0.81-0.048
		c-0.248-0.016-0.417-0.037-0.509-0.055c-0.193-0.04-0.314-0.092-0.375-0.161c-0.055-0.071-0.082-0.174-0.082-0.311V301.077z"/>
	<path style="fill:#09594F;" d="M268.707,296.077c-0.267,0-0.494-0.034-0.681-0.103c-0.19-0.069-0.285-0.174-0.285-0.314v-1.745
		c0-0.119,0.095-0.214,0.285-0.282c0.187-0.069,0.414-0.105,0.681-0.105h6.279v2.549H268.707z"/>
	<path style="fill:#09594F;" d="M274.817,296.077c-0.267,0-0.494-0.034-0.684-0.103c-0.187-0.069-0.288-0.174-0.288-0.314v-1.745
		c0-0.119,0.1-0.214,0.288-0.282c0.19-0.069,0.417-0.105,0.684-0.105h6.279v2.549H274.817z"/>
	<path style="fill:#09594F;" d="M290.101,293.558c0.984-0.238,1.758-0.805,2.317-1.716c0.557-0.908,0.837-1.966,0.837-3.167v-0.327
		c0-1.301-0.359-2.244-1.079-2.829c-0.721-0.583-1.705-0.874-2.953-0.874c-0.494,0-1.132,0.071-1.903,0.208
		c-0.779,0.137-1.52,0.454-2.22,0.945l2.898,7.76H290.101z M279.955,293.915c0-0.119,0.098-0.214,0.285-0.282
		c0.193-0.069,0.42-0.103,0.684-0.103h4.571l-2.666-7.105c-0.04-0.063-0.063-0.14-0.074-0.235c-0.008-0.1-0.013-0.19-0.013-0.269
		l0.026-0.858c0.021-0.256,0.182-0.515,0.483-0.773c0.322-0.293,0.705-0.562,1.153-0.81c0.441-0.251,0.932-0.457,1.462-0.623
		c0.528-0.166,1.077-0.298,1.647-0.401c0.57-0.1,1.135-0.148,1.708-0.148c0.926,0,1.784,0.111,2.568,0.325
		c0.789,0.219,1.465,0.559,2.035,1.024c0.567,0.464,1.006,1.061,1.322,1.792c0.309,0.728,0.467,1.599,0.467,2.605v0.562
		c0,0.473-0.048,0.955-0.143,1.449c-0.095,0.496-0.227,0.963-0.399,1.407c-0.169,0.446-0.375,0.85-0.61,1.214
		c-0.24,0.367-0.496,0.649-0.787,0.844h3.584v2.547h-16.338c-0.264,0-0.491-0.034-0.684-0.103c-0.187-0.069-0.285-0.174-0.285-0.314
		V293.915z"/>
	<path style="fill:#09594F;" d="M297.094,296.077c-0.267,0-0.494-0.034-0.681-0.103c-0.193-0.069-0.29-0.174-0.29-0.314v-1.745
		c0-0.119,0.098-0.214,0.29-0.282c0.187-0.069,0.414-0.105,0.681-0.105h6.279v2.549H297.094z"/>
	<path style="fill:#09594F;" d="M303.201,296.077c-0.267,0-0.494-0.034-0.684-0.103c-0.19-0.069-0.288-0.174-0.288-0.314v-1.745
		c0-0.119,0.098-0.214,0.288-0.282c0.19-0.069,0.417-0.105,0.684-0.105h6.279v2.549H303.201z"/>
	<path style="fill:#09594F;" d="M308.342,293.914c0-0.119,0.098-0.211,0.285-0.282c0.193-0.069,0.417-0.103,0.686-0.103h1.077
		c0.19,0,0.399-0.01,0.626-0.026c0.227-0.021,0.438-0.066,0.636-0.135c0.201-0.071,0.37-0.179,0.515-0.325
		c0.14-0.15,0.209-0.351,0.209-0.61v-6.398c0-0.153,0.05-0.293,0.148-0.414c0.092-0.114,0.214-0.174,0.367-0.174h1.309
		c0.148,0,0.275,0.061,0.37,0.174c0.092,0.121,0.137,0.261,0.137,0.414v6.841c0.063,0.164,0.177,0.282,0.359,0.372
		c0.179,0.09,0.377,0.158,0.594,0.208c0.222,0.048,0.443,0.084,0.67,0.1c0.224,0.021,0.422,0.029,0.597,0.029h0.596
		c0.172,0,0.364-0.016,0.583-0.042c0.214-0.026,0.42-0.079,0.607-0.148c0.193-0.071,0.351-0.174,0.486-0.309
		c0.135-0.14,0.201-0.327,0.201-0.562v-7.496c0-0.156,0.047-0.288,0.156-0.401c0.106-0.106,0.232-0.158,0.38-0.158h1.306
		c0.153,0,0.275,0.053,0.37,0.158c0.098,0.113,0.148,0.245,0.148,0.401v7.847c0.108,0.317,0.393,0.515,0.85,0.596
		c0.457,0.077,0.926,0.114,1.423,0.114h0.367c0.169,0,0.375-0.008,0.612-0.029c0.235-0.016,0.459-0.063,0.665-0.135
		c0.209-0.069,0.385-0.174,0.525-0.322c0.143-0.15,0.214-0.34,0.214-0.575v-8.62c0-0.156,0.05-0.29,0.156-0.399
		c0.106-0.111,0.232-0.161,0.388-0.161h1.333c0.148,0,0.274,0.05,0.37,0.161c0.092,0.108,0.14,0.243,0.14,0.399v8.913
		c0.061,0.156,0.182,0.282,0.37,0.37c0.187,0.092,0.399,0.161,0.628,0.208c0.227,0.05,0.451,0.085,0.678,0.106
		c0.23,0.016,0.428,0.026,0.597,0.026h0.541v2.547h-0.483c-0.509,0-1.098-0.061-1.763-0.195c-0.66-0.124-1.238-0.388-1.731-0.781
		c-0.436,0.393-0.955,0.657-1.565,0.781c-0.602,0.135-1.18,0.195-1.729,0.195h-0.454c-0.665,0-1.259-0.061-1.779-0.195
		c-0.52-0.124-1.035-0.388-1.547-0.781c-0.763,0.649-1.858,0.977-3.297,0.977h-0.483c-0.494,0-1.037-0.061-1.634-0.195
		c-0.596-0.124-1.111-0.388-1.549-0.781c-0.224,0.216-0.488,0.385-0.781,0.507c-0.293,0.113-0.591,0.214-0.895,0.29
		c-0.306,0.084-0.602,0.132-0.895,0.153c-0.296,0.016-0.565,0.026-0.81,0.026h-0.905c-0.269,0-0.494-0.032-0.686-0.103
		c-0.187-0.069-0.285-0.174-0.285-0.311V293.914z"/>
	<path style="fill:#09594F;" d="M331.445,296.077c-0.267,0-0.494-0.034-0.681-0.103c-0.19-0.069-0.285-0.174-0.285-0.314v-1.745
		c0-0.119,0.095-0.214,0.285-0.282c0.187-0.069,0.414-0.105,0.681-0.105h6.279v2.549H331.445z"/>
	<path style="fill:#09594F;" d="M337.553,296.077c-0.267,0-0.494-0.034-0.681-0.103c-0.19-0.069-0.285-0.174-0.285-0.314v-1.745
		c0-0.119,0.095-0.214,0.285-0.282c0.187-0.069,0.414-0.105,0.681-0.105h6.279v2.549H337.553z"/>
	<path style="fill:#09594F;" d="M342.695,293.914c0-0.119,0.095-0.211,0.285-0.282c0.19-0.069,0.417-0.103,0.686-0.103h2.267
		c0.552,0,0.895-0.047,1.04-0.145c0.14-0.103,0.211-0.409,0.211-0.924v-18.059c0-0.158,0.053-0.296,0.158-0.401
		c0.103-0.108,0.23-0.164,0.383-0.164h1.396c0.148,0,0.269,0.055,0.367,0.164c0.092,0.106,0.143,0.243,0.143,0.401v17.087v0.794
		c0,0.298-0.008,0.604-0.018,0.921c-0.008,0.314-0.024,0.626-0.042,0.919c-0.018,0.293-0.048,0.562-0.082,0.8
		c-0.042,0.198-0.098,0.364-0.172,0.501c-0.077,0.14-0.23,0.256-0.457,0.354c-0.15,0.063-0.367,0.103-0.652,0.135
		c-0.282,0.032-0.599,0.061-0.937,0.09c-0.343,0.029-0.699,0.05-1.066,0.061c-0.37,0.008-0.715,0.013-1.037,0.013h-1.502
		c-0.269,0-0.496-0.032-0.686-0.103c-0.19-0.069-0.285-0.174-0.285-0.311V293.914z"/>
	<path style="fill:#09594F;" d="M354.46,274.399c0-0.156,0.05-0.293,0.156-0.412c0.103-0.119,0.23-0.182,0.383-0.182h1.394
		c0.15,0,0.275,0.063,0.37,0.182c0.092,0.119,0.143,0.256,0.143,0.412v21.084c0,0.164-0.05,0.298-0.143,0.414
		c-0.095,0.121-0.219,0.182-0.37,0.182h-1.394c-0.153,0-0.28-0.061-0.383-0.182c-0.106-0.116-0.156-0.251-0.156-0.414V274.399z"/>
	<path style="fill:#09594F;" d="M375.345,276.885c0-0.193,0.069-0.351,0.211-0.472c0.143-0.121,0.296-0.177,0.47-0.177h1.106
		c0.172,0,0.322,0.055,0.454,0.177c0.135,0.121,0.201,0.28,0.201,0.472v1.6c0,0.182-0.066,0.33-0.201,0.446
		c-0.132,0.119-0.282,0.177-0.454,0.177h-1.106c-0.174,0-0.327-0.058-0.47-0.177c-0.143-0.116-0.211-0.264-0.211-0.446V276.885z
		 M370.713,276.885c0-0.193,0.061-0.351,0.182-0.472c0.124-0.121,0.28-0.177,0.47-0.177h1.109c0.187,0,0.343,0.055,0.47,0.177
		c0.121,0.121,0.182,0.28,0.182,0.472v1.6c0,0.182-0.066,0.33-0.201,0.446c-0.132,0.119-0.282,0.177-0.451,0.177h-1.109
		c-0.19,0-0.346-0.058-0.47-0.177c-0.121-0.116-0.182-0.264-0.182-0.446V276.885z M370.653,289.372c0,1.188,0.259,2.114,0.768,2.777
		c0.512,0.662,1.383,0.995,2.616,0.995h0.538c0.285,0,0.578-0.018,0.882-0.055c0.303-0.042,0.578-0.121,0.823-0.243
		c0.245-0.116,0.446-0.28,0.596-0.488c0.15-0.208,0.23-0.47,0.23-0.789v-6.744c-0.38-0.04-0.71-0.069-0.998-0.09
		c-0.282-0.019-0.549-0.029-0.792-0.029c-0.686,0-1.309,0.058-1.874,0.177c-0.573,0.119-1.058,0.335-1.467,0.641
		c-0.404,0.306-0.728,0.723-0.963,1.251c-0.238,0.517-0.359,1.18-0.359,1.972V289.372z M368.267,288.91
		c0-1.164,0.182-2.164,0.544-2.993c0.356-0.824,0.863-1.504,1.518-2.024c0.655-0.525,1.431-0.911,2.328-1.156
		c0.9-0.245,1.89-0.369,2.969-0.369c0.248,0,0.533,0.01,0.853,0.026c0.319,0.024,0.641,0.053,0.955,0.092
		c0.311,0.04,0.612,0.082,0.892,0.132c0.282,0.048,0.531,0.105,0.736,0.164c0.193,0.04,0.309,0.103,0.359,0.193
		c0.045,0.087,0.071,0.211,0.071,0.372v8.319c0,0.789,0.18,1.299,0.538,1.52c0.362,0.232,0.842,0.343,1.452,0.343h0.649v2.55h-0.966
		c-0.85,0-1.565-0.129-2.141-0.388c-0.578-0.253-1.019-0.699-1.322-1.333c-0.322,0.435-0.821,0.747-1.494,0.932
		c-0.67,0.187-1.407,0.282-2.201,0.282h-0.256c-1.76,0-3.117-0.501-4.062-1.507c-0.945-1.011-1.423-2.468-1.423-4.384V288.91z"/>
	<path style="fill:#09594F;" d="M381.964,296.077c-0.267,0-0.494-0.034-0.684-0.103c-0.187-0.069-0.282-0.174-0.282-0.314v-1.745
		c0-0.119,0.095-0.214,0.282-0.282c0.19-0.069,0.417-0.105,0.684-0.105h6.279v2.549H381.964z"/>
	<path style="fill:#09594F;" d="M388.074,296.077c-0.267,0-0.494-0.034-0.681-0.103c-0.193-0.069-0.29-0.174-0.29-0.314v-1.745
		c0-0.119,0.098-0.214,0.29-0.282c0.187-0.069,0.414-0.105,0.681-0.105h6.279v2.549H388.074z"/>
	<path style="fill:#09594F;" d="M396.484,280.44c-0.343,0-0.515-0.119-0.515-0.356v-0.501c0-0.198,0.172-0.296,0.515-0.296h0.48
		c-0.169-0.219-0.293-0.48-0.37-0.786c-0.074-0.304-0.111-0.607-0.111-0.903c0-0.829,0.23-1.439,0.694-1.821
		c0.465-0.383,1.122-0.578,1.974-0.578c0.15,0,0.322,0.01,0.515,0.032c0.187,0.021,0.375,0.048,0.565,0.09
		c0.208,0.079,0.314,0.195,0.314,0.354v0.414c0,0.216-0.121,0.325-0.372,0.325c-0.037,0-0.169-0.003-0.396-0.016
		c-0.227-0.005-0.388-0.013-0.483-0.013c-1.003,0-1.504,0.446-1.504,1.333c0,0.414,0.066,0.755,0.201,1.021
		c0.129,0.264,0.272,0.441,0.422,0.517h1.903c0.322,0,0.483,0.119,0.483,0.356v0.472c0,0.161-0.04,0.259-0.127,0.298
		c-0.084,0.037-0.203,0.058-0.356,0.058H396.484z M393.213,293.914c0-0.119,0.095-0.211,0.282-0.282
		c0.193-0.069,0.42-0.103,0.686-0.103h1.277c0.19,0,0.396-0.01,0.626-0.029c0.227-0.018,0.443-0.063,0.655-0.132
		c0.203-0.071,0.38-0.182,0.525-0.325c0.14-0.15,0.211-0.351,0.211-0.61v-7.76c0-0.156,0.053-0.29,0.156-0.399
		c0.103-0.106,0.23-0.161,0.383-0.161h1.309c0.15,0,0.282,0.055,0.38,0.161c0.106,0.108,0.161,0.243,0.161,0.399v8.145
		c0.055,0.156,0.174,0.282,0.354,0.367c0.177,0.095,0.377,0.164,0.599,0.208c0.214,0.053,0.435,0.087,0.662,0.106
		c0.23,0.019,0.43,0.029,0.596,0.029h0.401v2.547h-0.34c-0.591,0-1.219-0.061-1.89-0.193c-0.673-0.127-1.227-0.391-1.66-0.784
		c-0.475,0.393-1.04,0.657-1.694,0.784c-0.652,0.132-1.243,0.193-1.776,0.193h-0.934c-0.267,0-0.494-0.032-0.686-0.103
		c-0.187-0.069-0.282-0.174-0.282-0.314V293.914z"/>
	<path style="fill:#09594F;" d="M402.309,296.077c-0.267,0-0.494-0.034-0.681-0.103c-0.19-0.069-0.29-0.174-0.29-0.314v-1.745
		c0-0.119,0.1-0.214,0.29-0.282c0.187-0.069,0.414-0.105,0.681-0.105h6.279v2.549H402.309z"/>
	<path style="fill:#09594F;" d="M408.419,296.077c-0.267,0-0.494-0.034-0.681-0.103c-0.19-0.069-0.285-0.174-0.285-0.314v-1.745
		c0-0.119,0.095-0.214,0.285-0.282c0.187-0.069,0.414-0.105,0.681-0.105h6.279v2.549H408.419z"/>
	<path style="fill:#09594F;" d="M419.695,299.48c0-0.195,0.074-0.354,0.216-0.47c0.14-0.119,0.298-0.179,0.467-0.179h1.109
		c0.174,0,0.319,0.061,0.454,0.179c0.135,0.116,0.201,0.275,0.201,0.47v1.602c0,0.156-0.066,0.298-0.201,0.43
		c-0.135,0.124-0.28,0.19-0.454,0.19h-1.109c-0.169,0-0.327-0.066-0.467-0.19c-0.143-0.132-0.216-0.275-0.216-0.43V299.48z
		 M415.063,299.48c0-0.195,0.063-0.354,0.185-0.47c0.127-0.119,0.28-0.179,0.472-0.179h1.109c0.187,0,0.343,0.061,0.467,0.179
		c0.124,0.116,0.187,0.275,0.187,0.47v1.602c0,0.156-0.069,0.298-0.201,0.43c-0.135,0.124-0.288,0.19-0.454,0.19h-1.109
		c-0.193,0-0.346-0.066-0.472-0.19c-0.121-0.132-0.185-0.275-0.185-0.43V299.48z M413.558,293.913c0-0.119,0.095-0.211,0.285-0.28
		c0.193-0.071,0.417-0.103,0.686-0.103h1.275c0.19,0,0.399-0.013,0.628-0.029c0.224-0.021,0.441-0.066,0.652-0.135
		c0.208-0.069,0.38-0.179,0.528-0.325c0.137-0.15,0.209-0.351,0.209-0.61v-7.757c0-0.158,0.055-0.29,0.158-0.401
		c0.1-0.106,0.23-0.161,0.383-0.161h1.306c0.15,0,0.282,0.055,0.383,0.161c0.106,0.111,0.158,0.243,0.158,0.401v8.143
		c0.055,0.156,0.174,0.282,0.356,0.37c0.174,0.092,0.375,0.161,0.596,0.208c0.214,0.05,0.435,0.085,0.662,0.106
		c0.232,0.016,0.428,0.029,0.596,0.029h0.401v2.547h-0.338c-0.594,0-1.222-0.063-1.89-0.195c-0.676-0.127-1.23-0.391-1.663-0.784
		c-0.475,0.393-1.04,0.657-1.694,0.784c-0.652,0.132-1.243,0.195-1.776,0.195h-0.932c-0.269,0-0.494-0.034-0.686-0.103
		c-0.19-0.071-0.285-0.177-0.285-0.314V293.913z"/>
	<path style="fill:#09594F;" d="M422.654,296.077c-0.267,0-0.494-0.034-0.684-0.103c-0.187-0.069-0.282-0.174-0.282-0.314v-1.745
		c0-0.119,0.095-0.214,0.282-0.282c0.19-0.069,0.417-0.105,0.684-0.105h6.279v2.549H422.654z"/>
	<path style="fill:#09594F;" d="M428.761,296.077c-0.267,0-0.494-0.034-0.681-0.103c-0.19-0.069-0.285-0.174-0.285-0.314v-1.745
		c0-0.119,0.095-0.214,0.285-0.282c0.187-0.069,0.414-0.105,0.681-0.105h6.279v2.549H428.761z"/>
	<path style="fill:#09594F;" d="M442.77,293.528c1.494,0,2.568-0.388,3.21-1.169c0.644-0.779,0.966-1.898,0.966-3.36v-0.533
		c0-0.713-0.095-1.301-0.298-1.776c-0.198-0.473-0.472-0.855-0.824-1.143c-0.351-0.282-0.779-0.486-1.277-0.604
		c-0.504-0.119-1.066-0.179-1.692-0.179c-0.507,0-0.937,0.016-1.277,0.029c-0.343,0.024-0.702,0.063-1.079,0.121v8.615H442.77z
		 M434.873,296.077c-0.269,0-0.494-0.034-0.684-0.103c-0.187-0.071-0.288-0.174-0.288-0.314v-1.745c0-0.119,0.1-0.214,0.288-0.282
		c0.19-0.069,0.414-0.106,0.684-0.106h3.236v-9.89c0-0.393,0.219-0.649,0.655-0.768c0.607-0.179,1.251-0.298,1.935-0.356
		c0.681-0.058,1.391-0.087,2.13-0.087c2.006,0,3.595,0.465,4.756,1.388c1.169,0.929,1.75,2.431,1.75,4.506v0.441
		c0,1.739-0.338,3.22-1.008,4.442c-0.673,1.225-1.71,2.046-3.112,2.457c-0.282,0.103-0.626,0.172-1.024,0.224
		c-0.399,0.048-0.81,0.09-1.235,0.116c-0.428,0.029-0.85,0.053-1.28,0.061c-0.428,0.008-0.816,0.016-1.177,0.016v0.739
		c0,1.481,0.227,2.579,0.684,3.302c0.451,0.723,1.314,1.079,2.584,1.079c1.23,0,2.067-0.335,2.5-1.006
		c0.438-0.673,0.673-1.737,0.713-3.199c0-0.074,0.003-0.195,0.013-0.354c0.008-0.158,0.021-0.322,0.026-0.488
		c0.011-0.169,0.026-0.332,0.045-0.491c0.013-0.156,0.037-0.267,0.055-0.322c0.19-0.731,0.557-1.227,1.109-1.481
		c0.267-0.14,0.578-0.232,0.937-0.267c0.359-0.04,0.758-0.063,1.193-0.063h1.196v2.549h-0.599c-0.301,0-0.631,0.003-0.982,0.016
		c-0.348,0.005-0.581,0.021-0.694,0.042l-0.029,1.095c-0.055,2.051-0.499,3.619-1.333,4.693c-0.839,1.077-2.212,1.615-4.123,1.615
		c-1.095,0-2.011-0.15-2.74-0.443c-0.728-0.296-1.312-0.726-1.75-1.288c-0.436-0.562-0.742-1.246-0.924-2.043
		c-0.179-0.8-0.269-1.705-0.269-2.711v-0.977H434.873z"/>
	<path style="fill:#09594F;" d="M451.379,296.077c-0.267,0-0.494-0.034-0.681-0.103c-0.193-0.069-0.29-0.174-0.29-0.314v-1.745
		c0-0.119,0.098-0.214,0.29-0.282c0.187-0.069,0.414-0.105,0.681-0.105h6.279v2.549H451.379z"/>
	<path style="fill:#09594F;" d="M457.489,296.077c-0.267,0-0.494-0.034-0.681-0.103c-0.19-0.069-0.285-0.174-0.285-0.314v-1.745
		c0-0.119,0.095-0.214,0.285-0.282c0.187-0.069,0.414-0.105,0.681-0.105h6.279v2.549H457.489z"/>
	<path style="fill:#09594F;" d="M462.628,293.914c0-0.119,0.095-0.211,0.285-0.282c0.187-0.069,0.417-0.103,0.681-0.103h2.275
		c0.549,0,0.892-0.047,1.037-0.145c0.14-0.103,0.211-0.409,0.211-0.924v-18.059c0-0.158,0.053-0.296,0.158-0.401
		c0.1-0.108,0.23-0.164,0.385-0.164h1.388c0.153,0,0.274,0.055,0.372,0.164c0.092,0.106,0.143,0.243,0.143,0.401v17.087v0.794
		c0,0.298-0.008,0.604-0.018,0.921c-0.008,0.314-0.024,0.626-0.042,0.919c-0.016,0.293-0.048,0.562-0.082,0.8
		c-0.042,0.198-0.098,0.364-0.174,0.501c-0.074,0.14-0.227,0.256-0.454,0.354c-0.15,0.063-0.372,0.103-0.652,0.135
		c-0.282,0.032-0.599,0.061-0.937,0.09c-0.343,0.029-0.697,0.05-1.066,0.061c-0.37,0.008-0.715,0.013-1.037,0.013h-1.507
		c-0.264,0-0.494-0.032-0.681-0.103c-0.19-0.069-0.285-0.174-0.285-0.311V293.914z"/>
	<path style="fill:#09594F;" d="M474.393,274.399c0-0.156,0.05-0.293,0.156-0.412c0.103-0.119,0.23-0.182,0.383-0.182h1.391
		c0.153,0,0.277,0.063,0.372,0.182c0.092,0.119,0.143,0.256,0.143,0.412v21.084c0,0.164-0.05,0.298-0.143,0.414
		c-0.095,0.121-0.219,0.182-0.372,0.182h-1.391c-0.153,0-0.28-0.061-0.383-0.182c-0.106-0.116-0.156-0.251-0.156-0.414V274.399z"/>
	<path style="fill:#09594F;" d="M31.047,337.47l1.375-1.663c1.594,1.895,4.197,3.753,7.76,3.753c5.052,0,6.501-2.943,6.501-5.147
		c0-7.588-14.857-3.64-14.857-12.656c0-4.22,3.64-6.892,8.135-6.892c3.677,0,6.498,1.357,8.393,3.64l-1.412,1.626
		c-1.782-2.246-4.307-3.254-7.092-3.254c-3.307,0-5.793,1.974-5.793,4.761c0,6.62,14.855,2.983,14.855,12.619
		c0,3.328-2.117,7.314-8.802,7.314C36.025,341.572,32.942,339.83,31.047,337.47"/>
	<path style="fill:#09594F;" d="M65.844,341.109V338.9c-1.597,1.821-3.603,2.671-6.089,2.671c-3.083,0-6.279-2.204-6.279-6.229
		c0-4.065,3.157-6.195,6.279-6.195c2.486,0,4.529,0.853,6.089,2.671v-3.793c0-2.787-2.154-4.294-4.791-4.294
		c-2.267,0-4.012,0.813-5.643,2.745l-1.077-1.391c1.855-2.091,3.935-3.136,6.907-3.136c3.637,0,6.535,1.819,6.535,5.999v13.16
		H65.844z M65.844,337.43v-4.102c-1.262-1.742-3.268-2.595-5.421-2.595c-2.932,0-4.901,1.974-4.901,4.645
		c0,2.632,1.969,4.606,4.901,4.606C62.576,339.985,64.582,339.135,65.844,337.43"/>
	<path style="fill:#09594F;" d="M86.418,341.108v-2.747c-1.449,1.702-3.864,3.212-6.464,3.212c-3.64,0-5.643-1.779-5.643-5.999
		v-13.16h1.932v12.695c0,3.64,1.745,4.643,4.344,4.643c2.302,0,4.643-1.431,5.83-3.096v-14.242h1.929v18.695H86.418z"/>
	<path style="fill:#09594F;" d="M108.106,341.108v-2.977c-1.262,1.932-3.566,3.442-6.24,3.442c-4.754,0-7.984-3.793-7.984-9.792
		c0-5.92,3.231-9.829,7.984-9.829c2.56,0,4.827,1.354,6.24,3.481v-10.141h1.966v25.816H108.106z M108.106,336.425v-9.251
		c-1.04-1.819-3.381-3.405-5.904-3.405c-3.975,0-6.279,3.484-6.279,8.011c0,4.526,2.304,7.974,6.279,7.974
		C104.725,339.754,107.066,338.204,108.106,336.425"/>
	<path style="fill:#09594F;" d="M116.089,317.926c0-0.853,0.707-1.51,1.486-1.51c0.818,0,1.486,0.657,1.486,1.51
		c0,0.85-0.668,1.547-1.486,1.547C116.796,319.472,116.089,318.776,116.089,317.926 M116.611,322.415h1.932v18.695h-1.932V322.415z"
		/>
	<path style="fill:#09594F;" d="M134.361,328.22c0-7.934,5.532-13.353,12.553-13.353c3.938,0,6.944,1.818,9.024,4.569l-1.782,1.195
		c-1.563-2.243-4.271-3.753-7.243-3.753c-5.793,0-10.325,4.606-10.325,11.341c0,6.657,4.532,11.342,10.325,11.342
		c2.972,0,5.68-1.512,7.243-3.756l1.819,1.161c-2.228,2.824-5.123,4.606-9.061,4.606
		C139.893,341.573,134.361,336.154,134.361,328.22"/>
	<path style="fill:#09594F;" d="M159.651,331.742c0-5.458,3.344-9.792,8.581-9.792c5.31,0,8.652,4.334,8.652,9.792
		c0,5.458-3.341,9.829-8.652,9.829C162.995,341.571,159.651,337.2,159.651,331.742 M174.803,331.742
		c0-4.141-2.339-7.974-6.572-7.974c-4.162,0-6.538,3.832-6.538,7.974c0,4.181,2.375,8.011,6.538,8.011
		C172.465,339.753,174.803,335.923,174.803,331.742"/>
	<path style="fill:#09594F;" d="M194.486,341.108v-12.656c0-3.597-1.745-4.682-4.347-4.682c-2.302,0-4.677,1.507-5.828,3.212v14.126
		h-1.932v-18.695h1.932v2.827c1.299-1.626,3.861-3.291,6.461-3.291c3.64,0,5.646,1.858,5.646,6.078v13.081H194.486z"/>
	<path style="fill:#09594F;" d="M203.324,337.509v-13.316h-2.972v-1.779h2.972v-5.107h1.969v5.107h3.637v1.779h-3.637v13.004
		c0,1.512,0.591,2.558,1.855,2.558c0.855,0,1.597-0.428,2.006-0.889l0.742,1.547c-0.705,0.697-1.56,1.161-3.046,1.161
		C204.475,341.573,203.324,340.064,203.324,337.509"/>
	<path style="fill:#09594F;" d="M213.684,341.108v-18.695h1.932v3.212c1.523-2.09,3.566-3.597,6.052-3.597v2.204
		c-0.335-0.077-0.594-0.077-0.966-0.077c-1.819,0-4.271,1.702-5.086,3.331v13.622H213.684z"/>
	<path style="fill:#09594F;" d="M237.377,341.109V338.9c-1.597,1.821-3.603,2.671-6.089,2.671c-3.083,0-6.277-2.204-6.277-6.229
		c0-4.065,3.157-6.195,6.277-6.195c2.486,0,4.532,0.853,6.089,2.671v-3.793c0-2.787-2.154-4.294-4.791-4.294
		c-2.265,0-4.012,0.813-5.643,2.745l-1.077-1.391c1.858-2.091,3.935-3.136,6.907-3.136c3.64,0,6.535,1.819,6.535,5.999v13.16
		H237.377z M237.377,337.43v-4.102c-1.262-1.742-3.268-2.595-5.421-2.595c-2.932,0-4.901,1.974-4.901,4.645
		c0,2.632,1.969,4.606,4.901,4.606C234.109,339.985,236.115,339.135,237.377,337.43"/>
	<path style="fill:#09594F;" d="M244.843,331.742c0-5.458,3.415-9.792,8.692-9.792c3.117,0,4.899,1.277,6.35,3.175l-1.341,1.238
		c-1.299-1.858-2.932-2.595-4.899-2.595c-4.199,0-6.762,3.484-6.762,7.974c0,4.49,2.563,8.011,6.762,8.011
		c1.966,0,3.6-0.773,4.899-2.632l1.341,1.238c-1.452,1.937-3.233,3.212-6.35,3.212C248.258,341.571,244.843,337.2,244.843,331.742"
		/>
	<path style="fill:#09594F;" d="M265.082,337.509v-13.316h-2.969v-1.779h2.969v-5.107h1.969v5.107h3.64v1.779h-3.64v13.004
		c0,1.512,0.594,2.558,1.855,2.558c0.855,0,1.597-0.428,2.009-0.889l0.739,1.547c-0.702,0.697-1.56,1.161-3.046,1.161
		C266.232,341.573,265.082,340.064,265.082,337.509"/>
	<path style="fill:#09594F;" d="M274.438,331.742c0-5.458,3.344-9.792,8.581-9.792c5.31,0,8.652,4.334,8.652,9.792
		c0,5.458-3.341,9.829-8.652,9.829C277.782,341.571,274.438,337.2,274.438,331.742 M289.591,331.742
		c0-4.141-2.339-7.974-6.572-7.974c-4.16,0-6.535,3.832-6.535,7.974c0,4.181,2.375,8.011,6.535,8.011
		C287.252,339.753,289.591,335.923,289.591,331.742"/>
	<path style="fill:#09594F;" d="M297.167,341.108v-18.695h1.932v3.212c1.523-2.09,3.566-3.597,6.052-3.597v2.204
		c-0.333-0.077-0.594-0.077-0.966-0.077c-1.819,0-4.271,1.702-5.086,3.331v13.622H297.167z"/>
	<path style="fill:#09594F;" d="M307.9,338.593l1.151-1.47c1.153,1.507,3.268,2.747,5.796,2.747c3.006,0,4.788-1.626,4.788-3.793
		c0-5.11-11.326-2.207-11.326-8.94c0-2.864,2.338-5.186,6.387-5.186c3.083,0,5.126,1.238,6.424,2.745l-1.077,1.433
		c-1.037-1.47-2.972-2.476-5.347-2.476c-2.785,0-4.458,1.468-4.458,3.405c0,4.685,11.291,1.819,11.291,9.019
		c0,3.019-2.228,5.495-6.723,5.495C311.912,341.573,309.681,340.683,307.9,338.593"/>
	<path style="fill:#09594F;" d="M355.175,341.109l-2.449-6.348h-13.113l-2.452,6.348h-2.449l10.141-25.816h2.637l10.135,25.816
		H355.175z M346.188,317.653l-5.87,15.097h11.701L346.188,317.653z"/>
	<path style="fill:#09594F;" d="M373.41,341.108v-2.747c-1.446,1.702-3.861,3.212-6.464,3.212c-3.64,0-5.643-1.779-5.643-5.999
		v-13.16h1.932v12.695c0,3.64,1.745,4.643,4.344,4.643c2.304,0,4.643-1.431,5.83-3.096v-14.242h1.929v18.695H373.41z"/>
	<path style="fill:#09594F;" d="M382.249,337.509v-13.316h-2.972v-1.779h2.972v-5.107h1.969v5.107h3.64v1.779h-3.64v13.004
		c0,1.512,0.591,2.558,1.855,2.558c0.855,0,1.597-0.428,2.006-0.889l0.742,1.547c-0.705,0.697-1.56,1.161-3.046,1.161
		C383.4,341.573,382.249,340.064,382.249,337.509"/>
	<path style="fill:#09594F;" d="M404.718,341.108v-12.735c0-3.598-1.745-4.603-4.344-4.603c-2.304,0-4.68,1.507-5.83,3.212v14.126
		h-1.932v-25.816h1.932v9.948c1.301-1.626,3.861-3.291,6.461-3.291c3.64,0,5.643,1.782,5.643,5.999v13.16H404.718z"/>
	<path style="fill:#09594F;" d="M412.181,331.742c0-5.458,3.344-9.792,8.581-9.792c5.313,0,8.652,4.334,8.652,9.792
		c0,5.458-3.339,9.829-8.652,9.829C415.525,341.571,412.181,337.2,412.181,331.742 M427.334,331.742
		c0-4.141-2.339-7.974-6.572-7.974c-4.16,0-6.535,3.832-6.535,7.974c0,4.181,2.375,8.011,6.535,8.011
		C424.995,339.753,427.334,335.923,427.334,331.742"/>
	<path style="fill:#09594F;" d="M434.91,341.108v-18.695h1.929v3.212c1.526-2.09,3.568-3.597,6.055-3.597v2.204
		c-0.335-0.077-0.594-0.077-0.966-0.077c-1.819,0-4.271,1.702-5.089,3.331v13.622H434.91z"/>
	<path style="fill:#09594F;" d="M446.684,317.926c0-0.853,0.707-1.51,1.486-1.51c0.818,0,1.486,0.657,1.486,1.51
		c0,0.85-0.668,1.547-1.486,1.547C447.391,319.472,446.684,318.776,446.684,317.926 M447.204,322.415h1.929v18.695h-1.929V322.415z"
		/>
	<path style="fill:#09594F;" d="M456.04,337.509v-13.316h-2.972v-1.779h2.972v-5.107h1.969v5.107h3.64v1.779h-3.64v13.004
		c0,1.512,0.594,2.558,1.855,2.558c0.855,0,1.597-0.428,2.009-0.889l0.739,1.547c-0.702,0.697-1.557,1.161-3.043,1.161
		C457.191,341.573,456.04,340.064,456.04,337.509"/>
	<path style="fill:#09594F;" d="M465.549,346.565c0.409,0.193,1.114,0.312,1.56,0.312c1.188,0,2.006-0.504,2.748-2.286l1.412-3.328
		l-7.615-18.848h2.154l6.538,16.333l6.464-16.333H481l-9.285,22.794c-0.966,2.365-2.489,3.487-4.569,3.487
		c-0.633,0-1.449-0.119-1.932-0.272L465.549,346.565z"/>
	<rect x="32.003" y="256.512" style="fill:#09594F;" width="443.627" height="1.314"/>
	<path style="fill:#41AD55;" d="M203.277,202.534c1.153,0,2.088,0.977,2.088,2.178c0,1.206-0.934,2.183-2.088,2.183
		c-1.153,0-2.088-0.977-2.088-2.183C201.189,203.511,202.124,202.534,203.277,202.534"/>
	<path style="fill:#41AD55;" d="M209.611,196.065c1.153,0,2.09,0.977,2.09,2.178c0,1.201-0.937,2.183-2.09,2.183
		c-1.153,0-2.088-0.982-2.088-2.183C207.524,197.041,208.458,196.065,209.611,196.065"/>
	<path style="fill:#41AD55;" d="M203.277,196.065c1.153,0,2.088,0.977,2.088,2.178c0,1.201-0.934,2.183-2.088,2.183
		c-1.153,0-2.088-0.982-2.088-2.183C201.189,197.041,202.124,196.065,203.277,196.065"/>
	<path style="fill:#41AD55;" d="M209.611,189.463c1.153,0,2.09,0.977,2.09,2.178c0,1.204-0.937,2.183-2.09,2.183
		c-1.153,0-2.088-0.979-2.088-2.183C207.524,190.44,208.458,189.463,209.611,189.463"/>
	<path style="fill:#41AD55;" d="M215.819,189.463c1.153,0,2.088,0.977,2.088,2.178c0,1.204-0.934,2.183-2.088,2.183
		c-1.153,0-2.09-0.979-2.09-2.183C213.729,190.44,214.666,189.463,215.819,189.463"/>
	<path style="fill:#41AD55;" d="M203.277,189.463c1.153,0,2.088,0.977,2.088,2.178c0,1.204-0.934,2.183-2.088,2.183
		c-1.153,0-2.088-0.979-2.088-2.183C201.189,190.44,202.124,189.463,203.277,189.463"/>
	<path style="fill:#41AD55;" d="M209.611,182.993c1.153,0,2.09,0.977,2.09,2.178c0,1.206-0.937,2.183-2.09,2.183
		c-1.153,0-2.088-0.977-2.088-2.183C207.524,183.97,208.458,182.993,209.611,182.993"/>
	<path style="fill:#41AD55;" d="M215.819,182.993c1.153,0,2.088,0.977,2.088,2.178c0,1.206-0.934,2.183-2.088,2.183
		c-1.153,0-2.09-0.977-2.09-2.183C213.729,183.97,214.666,182.993,215.819,182.993"/>
	<path style="fill:#41AD55;" d="M203.277,182.993c1.153,0,2.088,0.977,2.088,2.178c0,1.206-0.934,2.183-2.088,2.183
		c-1.153,0-2.088-0.977-2.088-2.183C201.189,183.97,202.124,182.993,203.277,182.993"/>
	<path style="fill:#41AD55;" d="M209.611,176.524c1.153,0,2.09,0.977,2.09,2.18c0,1.198-0.937,2.18-2.09,2.18
		c-1.153,0-2.088-0.982-2.088-2.18C207.524,177.5,208.458,176.524,209.611,176.524"/>
	<path style="fill:#41AD55;" d="M215.819,176.524c1.153,0,2.088,0.977,2.088,2.18c0,1.198-0.934,2.18-2.088,2.18
		c-1.153,0-2.09-0.982-2.09-2.18C213.729,177.5,214.666,176.524,215.819,176.524"/>
	<path style="fill:#41AD55;" d="M222.027,182.993c1.153,0,2.088,0.977,2.088,2.178c0,1.206-0.934,2.183-2.088,2.183
		c-1.153,0-2.088-0.977-2.088-2.183C219.939,183.97,220.873,182.993,222.027,182.993"/>
	<path style="fill:#41AD55;" d="M222.027,176.524c1.153,0,2.088,0.977,2.088,2.18c0,1.198-0.934,2.18-2.088,2.18
		c-1.153,0-2.088-0.982-2.088-2.18C219.939,177.5,220.873,176.524,222.027,176.524"/>
	<path style="fill:#41AD55;" d="M228.361,189.463c1.153,0,2.088,0.977,2.088,2.178c0,1.206-0.934,2.183-2.088,2.183
		c-1.153,0-2.088-0.977-2.088-2.183C226.273,190.44,227.207,189.463,228.361,189.463"/>
	<path style="fill:#41AD55;" d="M228.361,182.993c1.153,0,2.088,0.977,2.088,2.178c0,1.206-0.934,2.183-2.088,2.183
		c-1.153,0-2.088-0.977-2.088-2.183C226.273,183.97,227.207,182.993,228.361,182.993"/>
	<path style="fill:#41AD55;" d="M228.361,176.524c1.153,0,2.088,0.977,2.088,2.18c0,1.198-0.934,2.18-2.088,2.18
		c-1.153,0-2.088-0.982-2.088-2.18C226.273,177.5,227.207,176.524,228.361,176.524"/>
	<path style="fill:#41AD55;" d="M234.576,196.065c1.153,0,2.093,0.977,2.093,2.178c0,1.201-0.94,2.183-2.093,2.183
		c-1.153,0-2.088-0.982-2.088-2.183C232.488,197.041,233.422,196.065,234.576,196.065"/>
	<path style="fill:#41AD55;" d="M234.576,189.463c1.153,0,2.093,0.977,2.093,2.178c0,1.204-0.94,2.183-2.093,2.183
		c-1.153,0-2.088-0.979-2.088-2.183C232.488,190.44,233.422,189.463,234.576,189.463"/>
	<path style="fill:#41AD55;" d="M234.576,182.993c1.153,0,2.093,0.977,2.093,2.178c0,1.206-0.94,2.183-2.093,2.183
		c-1.153,0-2.088-0.977-2.088-2.183C232.488,183.97,233.422,182.993,234.576,182.993"/>
	<path style="fill:#41AD55;" d="M234.576,176.524c1.153,0,2.093,0.977,2.093,2.18c0,1.198-0.94,2.18-2.093,2.18
		c-1.153,0-2.088-0.982-2.088-2.18C232.488,177.5,233.422,176.524,234.576,176.524"/>
	<path style="fill:#41AD55;" d="M215.819,169.782c1.153,0,2.088,0.977,2.088,2.18s-0.934,2.18-2.088,2.18
		c-1.153,0-2.09-0.977-2.09-2.18S214.666,169.782,215.819,169.782"/>
	<path style="fill:#41AD55;" d="M222.027,169.782c1.153,0,2.088,0.977,2.088,2.18s-0.934,2.18-2.088,2.18
		c-1.153,0-2.088-0.977-2.088-2.18S220.873,169.782,222.027,169.782"/>
	<path style="fill:#41AD55;" d="M228.361,169.782c1.153,0,2.088,0.977,2.088,2.18s-0.934,2.18-2.088,2.18
		c-1.153,0-2.088-0.977-2.088-2.18S227.207,169.782,228.361,169.782"/>
	<path style="fill:#41AD55;" d="M241.046,202.534c1.153,0,2.088,0.977,2.088,2.178c0,1.206-0.934,2.183-2.088,2.183
		c-1.153,0-2.088-0.977-2.088-2.183C238.958,203.511,239.892,202.534,241.046,202.534"/>
	<path style="fill:#41AD55;" d="M241.046,196.065c1.153,0,2.088,0.977,2.088,2.178c0,1.206-0.934,2.183-2.088,2.183
		c-1.153,0-2.088-0.977-2.088-2.183C238.958,197.041,239.892,196.065,241.046,196.065"/>
	<path style="fill:#41AD55;" d="M241.046,189.463c1.153,0,2.088,0.977,2.088,2.178c0,1.206-0.934,2.183-2.088,2.183
		c-1.153,0-2.088-0.977-2.088-2.183C238.958,190.44,239.892,189.463,241.046,189.463"/>
	<path style="fill:#41AD55;" d="M241.046,182.993c1.153,0,2.088,0.977,2.088,2.178c0,1.206-0.934,2.183-2.088,2.183
		c-1.153,0-2.088-0.977-2.088-2.183C238.958,183.97,239.892,182.993,241.046,182.993"/>
	<path style="fill:#41AD55;" d="M222.027,163.305c1.153,0,2.088,0.977,2.088,2.178c0,1.201-0.934,2.183-2.088,2.183
		c-1.153,0-2.088-0.982-2.088-2.183C219.939,164.281,220.873,163.305,222.027,163.305"/>
	<path style="fill:#41AD55;" d="M203.277,202.534c1.153,0,2.088,0.977,2.088,2.178c0,1.206-0.934,2.183-2.088,2.183
		c-1.153,0-2.088-0.977-2.088-2.183C201.189,203.511,202.124,202.534,203.277,202.534"/>
	<path style="fill:#41AD55;" d="M209.611,196.065c1.153,0,2.09,0.977,2.09,2.178c0,1.201-0.937,2.183-2.09,2.183
		c-1.153,0-2.088-0.982-2.088-2.183C207.524,197.041,208.458,196.065,209.611,196.065"/>
	<path style="fill:#41AD55;" d="M203.277,196.065c1.153,0,2.088,0.977,2.088,2.178c0,1.201-0.934,2.183-2.088,2.183
		c-1.153,0-2.088-0.982-2.088-2.183C201.189,197.041,202.124,196.065,203.277,196.065"/>
	<path style="fill:#41AD55;" d="M209.611,189.463c1.153,0,2.09,0.977,2.09,2.178c0,1.204-0.937,2.183-2.09,2.183
		c-1.153,0-2.088-0.979-2.088-2.183C207.524,190.44,208.458,189.463,209.611,189.463"/>
	<path style="fill:#41AD55;" d="M215.819,189.463c1.153,0,2.088,0.977,2.088,2.178c0,1.204-0.934,2.183-2.088,2.183
		c-1.153,0-2.09-0.979-2.09-2.183C213.729,190.44,214.666,189.463,215.819,189.463"/>
	<path style="fill:#41AD55;" d="M203.277,189.463c1.153,0,2.088,0.977,2.088,2.178c0,1.204-0.934,2.183-2.088,2.183
		c-1.153,0-2.088-0.979-2.088-2.183C201.189,190.44,202.124,189.463,203.277,189.463"/>
	<path style="fill:#41AD55;" d="M209.611,182.993c1.153,0,2.09,0.977,2.09,2.178c0,1.206-0.937,2.183-2.09,2.183
		c-1.153,0-2.088-0.977-2.088-2.183C207.524,183.97,208.458,182.993,209.611,182.993"/>
	<path style="fill:#41AD55;" d="M215.819,182.993c1.153,0,2.088,0.977,2.088,2.178c0,1.206-0.934,2.183-2.088,2.183
		c-1.153,0-2.09-0.977-2.09-2.183C213.729,183.97,214.666,182.993,215.819,182.993"/>
	<path style="fill:#41AD55;" d="M203.277,182.993c1.153,0,2.088,0.977,2.088,2.178c0,1.206-0.934,2.183-2.088,2.183
		c-1.153,0-2.088-0.977-2.088-2.183C201.189,183.97,202.124,182.993,203.277,182.993"/>
	<path style="fill:#41AD55;" d="M209.611,176.524c1.153,0,2.09,0.977,2.09,2.18c0,1.198-0.937,2.18-2.09,2.18
		c-1.153,0-2.088-0.982-2.088-2.18C207.524,177.5,208.458,176.524,209.611,176.524"/>
	<path style="fill:#41AD55;" d="M215.819,176.524c1.153,0,2.088,0.977,2.088,2.18c0,1.198-0.934,2.18-2.088,2.18
		c-1.153,0-2.09-0.982-2.09-2.18C213.729,177.5,214.666,176.524,215.819,176.524"/>
	<path style="fill:#41AD55;" d="M222.027,182.993c1.153,0,2.088,0.977,2.088,2.178c0,1.206-0.934,2.183-2.088,2.183
		c-1.153,0-2.088-0.977-2.088-2.183C219.939,183.97,220.873,182.993,222.027,182.993"/>
	<path style="fill:#41AD55;" d="M222.027,176.524c1.153,0,2.088,0.977,2.088,2.18c0,1.198-0.934,2.18-2.088,2.18
		c-1.153,0-2.088-0.982-2.088-2.18C219.939,177.5,220.873,176.524,222.027,176.524"/>
	<path style="fill:#41AD55;" d="M228.361,189.463c1.153,0,2.088,0.977,2.088,2.178c0,1.206-0.934,2.183-2.088,2.183
		c-1.153,0-2.088-0.977-2.088-2.183C226.273,190.44,227.207,189.463,228.361,189.463"/>
	<path style="fill:#41AD55;" d="M228.361,182.993c1.153,0,2.088,0.977,2.088,2.178c0,1.206-0.934,2.183-2.088,2.183
		c-1.153,0-2.088-0.977-2.088-2.183C226.273,183.97,227.207,182.993,228.361,182.993"/>
	<path style="fill:#41AD55;" d="M228.361,176.524c1.153,0,2.088,0.977,2.088,2.18c0,1.198-0.934,2.18-2.088,2.18
		c-1.153,0-2.088-0.982-2.088-2.18C226.273,177.5,227.207,176.524,228.361,176.524"/>
	<path style="fill:#41AD55;" d="M234.576,196.065c1.153,0,2.093,0.977,2.093,2.178c0,1.201-0.94,2.183-2.093,2.183
		c-1.153,0-2.088-0.982-2.088-2.183C232.488,197.041,233.422,196.065,234.576,196.065"/>
	<path style="fill:#41AD55;" d="M234.576,189.463c1.153,0,2.093,0.977,2.093,2.178c0,1.204-0.94,2.183-2.093,2.183
		c-1.153,0-2.088-0.979-2.088-2.183C232.488,190.44,233.422,189.463,234.576,189.463"/>
	<path style="fill:#41AD55;" d="M234.576,182.993c1.153,0,2.093,0.977,2.093,2.178c0,1.206-0.94,2.183-2.093,2.183
		c-1.153,0-2.088-0.977-2.088-2.183C232.488,183.97,233.422,182.993,234.576,182.993"/>
	<path style="fill:#41AD55;" d="M234.576,176.524c1.153,0,2.093,0.977,2.093,2.18c0,1.198-0.94,2.18-2.093,2.18
		c-1.153,0-2.088-0.982-2.088-2.18C232.488,177.5,233.422,176.524,234.576,176.524"/>
	<path style="fill:#41AD55;" d="M215.819,169.782c1.153,0,2.088,0.977,2.088,2.18s-0.934,2.18-2.088,2.18
		c-1.153,0-2.09-0.977-2.09-2.18S214.666,169.782,215.819,169.782"/>
	<path style="fill:#41AD55;" d="M222.027,169.782c1.153,0,2.088,0.977,2.088,2.18s-0.934,2.18-2.088,2.18
		c-1.153,0-2.088-0.977-2.088-2.18S220.873,169.782,222.027,169.782"/>
	<path style="fill:#41AD55;" d="M228.361,169.782c1.153,0,2.088,0.977,2.088,2.18s-0.934,2.18-2.088,2.18
		c-1.153,0-2.088-0.977-2.088-2.18S227.207,169.782,228.361,169.782"/>
	<path style="fill:#41AD55;" d="M241.046,202.534c1.153,0,2.088,0.977,2.088,2.178c0,1.206-0.934,2.183-2.088,2.183
		c-1.153,0-2.088-0.977-2.088-2.183C238.958,203.511,239.892,202.534,241.046,202.534"/>
	<path style="fill:#41AD55;" d="M241.046,196.065c1.153,0,2.088,0.977,2.088,2.178c0,1.206-0.934,2.183-2.088,2.183
		c-1.153,0-2.088-0.977-2.088-2.183C238.958,197.041,239.892,196.065,241.046,196.065"/>
	<path style="fill:#41AD55;" d="M241.046,189.463c1.153,0,2.088,0.977,2.088,2.178c0,1.206-0.934,2.183-2.088,2.183
		c-1.153,0-2.088-0.977-2.088-2.183C238.958,190.44,239.892,189.463,241.046,189.463"/>
	<path style="fill:#41AD55;" d="M241.046,182.993c1.153,0,2.088,0.977,2.088,2.178c0,1.206-0.934,2.183-2.088,2.183
		c-1.153,0-2.088-0.977-2.088-2.183C238.958,183.97,239.892,182.993,241.046,182.993"/>
	<path style="fill:#41AD55;" d="M222.027,163.305c1.153,0,2.088,0.977,2.088,2.178c0,1.201-0.934,2.183-2.088,2.183
		c-1.153,0-2.088-0.982-2.088-2.183C219.939,164.281,220.873,163.305,222.027,163.305"/>
</g>
</svg>
