<?xml version="1.0" encoding="UTF-8"?>
<svg id="Layer_2" xmlns="http://www.w3.org/2000/svg" version="1.1" xmlns:xlink="http://www.w3.org/1999/xlink" viewBox="0 0 1000 1000">
  <!-- Generator: Adobe Illustrator 29.6.1, SVG Export Plug-In . SVG Version: 2.1.1 Build 9)  -->
  <defs>
    <style>
      .st0 {
        fill: #70c0c9;
      }

      .st1 {
        fill: none;
      }

      .st2 {
        fill: #131d40;
      }

      .st3 {
        clip-path: url(#clippath);
      }
    </style>
    <clipPath id="clippath">
      <rect class="st1" x="247" y="304.3" width="506" height="391.3"/>
    </clipPath>
  </defs>
  <g id="_x30_01">
    <g id="_x30_011">
      <g class="st3">
        <g>
          <path class="st2" d="M249.3,619.7v-28.5h19.4v4.8h-13.8v6.8h11.8v4.8h-11.8v12.1h-5.6Z"/>
          <path class="st2" d="M273.4,591.1h5.7v15.4c0,2.5,0,3.9.2,4.8.5,2.3,2.3,3.8,5.4,3.8s4.8-.8,5.1-3.5c.2-1,.3-2.7.3-4.8v-15.7h5.7v14.9c0,3.5,0,5.8-.5,7.3-1.1,5.1-5.6,6.8-10.6,6.8s-4.8-.3-6.1-1c-2.8-1.3-4.5-3.5-4.9-5.6-.3-1.6-.5-4.2-.5-7.3v-15.2.2h.1Z"/>
          <path class="st2" d="M308.5,619.7v-23.7h-8.4v-4.8h22.6v4.8h-8.4v23.7h-5.7Z"/>
          <path class="st2" d="M326.3,591.1h5.7v15.4c0,2.5,0,3.9.2,4.8.5,2.3,2.3,3.8,5.4,3.8s4.8-.8,5.1-3.5c.2-1,.3-2.7.3-4.8v-15.7h5.7v14.9c0,3.5,0,5.8-.5,7.3-1.2,5.1-5.6,6.8-10.6,6.8s-4.8-.3-6.1-1c-2.8-1.3-4.5-3.5-4.9-5.6-.3-1.6-.5-4.2-.5-7.3v-15.2.2h.1Z"/>
          <path class="st2" d="M360.7,619.7h-5.7v-28.5h12c3.1,0,5.3.3,6.6.8,2.8,1,4.6,3.8,4.6,7.3s-2.5,7.1-7.4,7.9c3.1,1.8,4.5,3.9,6.3,7l3.4,5.6h-6.9l-4.1-6.3c-1.5-2.2-2.5-3.6-3-4.2-1-1.2-2-1.5-4.6-1.5h-1.2v11.9-.2h0ZM360.7,596v7.3h4.3c2.8,0,4.5,0,5.1-.3,1.3-.5,2.2-1.6,2.2-3.3s-1-3.1-3-3.5h-8.6v-.2h0Z"/>
          <path class="st2" d="M383.6,619.7v-28.5h21.1v4.8h-15.3v6.3h14.4v4.8h-14.4v7.8h15.8v4.8h-21.6Z"/>
          <path class="st2" d="M423.6,619.7h-5.7v-28.5h9.2c3.4,0,5.7,0,6.8.5,3.1.8,5.7,3.8,5.7,8.3s-3.3,7.9-6.3,8.6c-1.3.3-3.3.3-5.9.3h-3.8v10.8h0ZM423.6,596v8.1h3.1c2.3,0,3.8,0,4.5-.5,1.5-.7,2.5-2,2.5-3.6s-1.3-3.5-3.1-3.8c-.7,0-2-.2-4.1-.2h-2.8Z"/>
          <path class="st2" d="M450.2,619.7h-5.7v-28.5h12c3.1,0,5.3.3,6.6.8,2.8,1,4.6,3.8,4.6,7.3s-2.5,7.1-7.4,7.9c3.1,1.8,4.5,3.9,6.3,7l3.4,5.6h-6.9l-4.1-6.3c-1.5-2.2-2.5-3.6-3-4.2-1-1.2-2-1.5-4.6-1.5h-1.2v11.9-.2h0ZM450.2,596v7.3h4.3c2.8,0,4.5,0,5.1-.3,1.3-.5,2.2-1.6,2.2-3.3s-1-3.1-3-3.5h-8.6v-.2h0Z"/>
          <path class="st2" d="M485.6,590.8c8.9,0,13.8,6.1,13.8,14.7s-4.9,14.7-13.7,14.7-13.8-5.8-13.8-14.6,4.5-14.9,13.7-14.9ZM485.7,615.2c4.6,0,7.7-3.3,7.7-9.9s-3.1-9.7-7.7-9.7-7.9,3.1-7.9,9.7,2.2,9.7,7.9,9.7v.2h0Z"/>
          <path class="st2" d="M514.1,591.1h5.7v18c0,2.3-.2,4.2-.7,5.5-1.2,3.3-3.9,5.5-8.7,5.5s-8.7-3.1-8.7-9.3l5.4-.7c0,2.3.5,5,3.6,5s3.4-2.8,3.4-5.6v-18.4h-.2Z"/>
          <path class="st2" d="M525.9,619.7v-28.5h21.1v4.8h-15.3v6.3h14.4v4.8h-14.4v7.8h15.8v4.8h-21.6Z"/>
          <path class="st2" d="M576.2,610.9c-1.6,6.3-5.7,9.3-11.7,9.3s-13-6.5-13-14.6,4.3-14.9,13.3-14.9,9.9,2.8,11.4,8.3l-5.6,1.3c-.7-3-3-4.8-5.9-4.8-4.3,0-7.1,2.8-7.1,9.6s2.8,9.9,6.9,9.9,5.3-2,6.3-6.1l5.6,1.8-.2.2h0Z"/>
          <path class="st2" d="M587.6,619.7v-23.7h-8.4v-4.8h22.6v4.8h-8.4v23.7h-5.7,0Z"/>
          <path class="st2" d="M613.3,619.7v-28.5h19.4v4.8h-13.7v6.8h11.8v4.8h-11.8v12.1h-5.7Z"/>
          <path class="st2" d="M650,590.8c8.9,0,13.8,6.1,13.8,14.7s-4.9,14.7-13.7,14.7-13.8-5.8-13.8-14.6,4.5-14.9,13.7-14.9ZM650,615.2c4.6,0,7.7-3.3,7.7-9.9s-3.1-9.7-7.7-9.7-7.9,3.1-7.9,9.7,2.2,9.7,7.9,9.7v.2h0Z"/>
          <path class="st2" d="M674.1,619.7h-5.7v-28.5h12c3.1,0,5.3.3,6.6.8,2.8,1,4.6,3.8,4.6,7.3s-2.5,7.1-7.4,7.9c3.1,1.8,4.5,3.9,6.3,7l3.4,5.6h-6.9l-4.1-6.3c-1.5-2.2-2.5-3.6-3-4.2-1-1.2-2-1.5-4.6-1.5h-1.1v11.9-.2h0ZM674.1,596v7.3h4.3c2.8,0,4.5,0,5.1-.3,1.3-.5,2.2-1.6,2.2-3.3s-1-3.1-3-3.5h-8.6v-.2h0Z"/>
          <path class="st2" d="M697,591.1h5.7v15.4c0,2.5,0,3.9.2,4.8.5,2.3,2.3,3.8,5.4,3.8s4.8-.8,5.1-3.5c.2-1,.3-2.7.3-4.8v-15.7h5.7v14.9c0,3.5,0,5.8-.5,7.3-1.2,5.1-5.6,6.8-10.6,6.8s-4.8-.3-6.1-1c-2.8-1.3-4.5-3.5-4.9-5.6-.3-1.6-.5-4.2-.5-7.3v-15.2.2h.1Z"/>
          <path class="st2" d="M725.5,619.7v-28.5h8.6l5.1,19.4,5.1-19.4h8.6v28.5h-5.3v-22.4l-5.6,22.4h-5.4l-5.6-22.4v22.4h-5.5Z"/>
          <path class="st2" d="M253.3,652.4s0,.7-.2.8l-3.3,2s-.7,0-.8-.2l-2-3.3s0-.7.2-.9l3.3-2s.7,0,.8.2l2,3.3h0ZM265.1,675.5h-4.1c-1.1,0-2-.2-2.6-2-.2-.5-.5-1.3-.8-2.2-.3,1-.8,3.1-.8,3.3,0,.3,0,.8-.8.8s-5.3-.3-7.4-3c-4.1-5,4.6-12.4,4.8-12.8.2-.3.8-.7.7-1.5,0-.5,0-.7.3-.7s2.5-.7,3.1-1c.5,0,.7.5.7.5,0,0,1.5,6.5,2.6,10.4.8,3,1.1,2.7,2.2,2.7h2.3v5.3h0ZM255.7,664.5s-.2-1-.7-1-1.1.7-2.6,2.7c-3,4.3,3.1,4.5,4.5,4.5h.7c-.8-2.7-1.5-5.9-1.6-6.1h-.2ZM259.5,652.1s0,.7-.2.8l-3.3,2s-.7,0-.8-.2l-2-3.3s0-.7.2-.8l3.3-2s.7,0,.8.2c0,0,2,3.3,2,3.3Z"/>
          <path class="st2" d="M262.8,670.2h7.2v5.3h-7.2v-5.3Z"/>
          <path class="st2" d="M268.4,670.2h7.2v5.3h-7.2s0-5.3,0-5.3Z"/>
          <path class="st2" d="M273.9,670.2h7.2v5.3h-7.2v-5.3Z"/>
          <path class="st2" d="M279.3,670.2h7.2v5.3h-7.2v-5.3Z"/>
          <path class="st2" d="M302.5,670.2v5.3h-7.2c-.8,0-1.6-.3-2-1,0-.2-.3-.7-.7-1.5-.3.7-.5,1-1,1.5-.7.8-1.5,1-1.8,1-1.5,0-7.4,0-5.4,0v-5.3h7.4s.5,0,.5-.5-1.5-7.4-1.5-7.4c0,0,0-.3.2-.3s4.1-2.8,4.5-3h.2l1.1,9.6c.2,1.3,0,1.5,2.8,1.5h3v.2h0ZM291.1,678.6s-.5-.3-.8-.2l-3.3,2s-.3.5-.2.8l2,3.3s.5.3.8.2l3.3-2s.3-.5.2-.8l-2-3.3ZM297.2,678.4s-.5-.3-.8-.2l-3.3,2s-.3.5-.2.8l2,3.3s.5.3.8.2l3.3-2s.3-.5.2-.8l-2-3.3Z"/>
          <path class="st2" d="M316.1,670.2v5.3h-6.8c-2.2,0-2.6-1.5-2.8-2.2-.5.7-.8,1-1.5,1.6-.3.3-1,.3-1,.3h-5.1v-5.3h5.7s.5,0,.5-.7c0-1-1.8-19.5-1.8-19.5,0,0,0-.3.3-.7.3,0,3.8-2.3,4.1-2.5s.3.2.3.2l1.6,21.5c0,1.8.7,1.6,3,1.6h3.1l.2.2h.1Z"/>
          <path class="st2" d="M326.6,670.2v5.3h-5.9c-.8,0-1.6-.3-2-1,0-.2-.3-.7-.7-1.5-.3.7-.5,1-1,1.5-.7.8-1.5,1-1.8,1-1.5,0-5.4,0-3.6,0v-5.3h5.6s.5,0,.5-.5-1.5-7.4-1.5-7.4c0,0,0-.3.2-.3s4.1-2.8,4.3-3h.3l1.2,9.6c.2,1.3,0,1.5,2.8,1.5h1.5l.2.2h0ZM318.5,678.4s-.5-.3-.8-.2l-3.3,2s-.3.5-.2.8l2,3.3s.5.3.8.2l3.3-2s.3-.5.2-.8l-2-3.3Z"/>
          <path class="st2" d="M347,670.2v5.3h-23.4v-5.3h7.1c-1.1-1-2.6-4.6-1.3-7.4,1.8-4.2,4.1-5.9,6.6-7.1.5-.3,1.6-.7,2.6-.7,1.6,0,3.4.7,3.9,3.3.8,4.6,1,8.1,1.3,11.9h3.1ZM334.3,651.2s0,.7-.2.8l-3.3,2s-.7,0-.8-.2l-2-3.3s0-.7.2-.8l3.3-2s.7,0,.8.2l2,3.3ZM339.3,670.2l-.8-8.3s-.2-1.6-1.5-1.6-3.3,2.2-3.8,3.5c-1.5,4.3,6.1,6.3,6.1,6.3v.2h0ZM341.2,650.5s0,.7-.2.8l-3.3,2s-.7,0-.8-.2l-2-3.3s0-.7.2-.8l3.3-2s.7,0,.8.2l2,3.3Z"/>
          <path class="st2" d="M345.5,670.2h7.2v5.3h-7.2v-5.3Z"/>
          <path class="st2" d="M369.3,670.2v5.3h-5.7c-1.6,0-2.2-1-2.5-2.5-.3.7-.7,1-1,1.5-.7.8-1.5,1-1.8,1-1.5,0-9.5,0-7.7,0v-5.3h9.5s.5,0,.5-.5-1.5-7.4-1.5-7.4v-.3c.3,0,4.1-2.8,4.5-3,.3-.2.3,0,.3,0l1.2,9.6c.2,1.3,0,1.5,2.8,1.5h1.5v.2h-.1ZM357.7,655.6l-3.3,2s-.7,0-.8-.2l-2-3.3s0-.7.2-.8l3.3-2s.7,0,.8.2l2,3.3s0,.7-.2.8ZM364.3,655.3l-3.3,2s-.7,0-.8-.2l-2-3.3s0-.7.2-.8l3.3-2s.7,0,.8.2l2,3.3s0,.7-.2.8Z"/>
          <path class="st2" d="M395.3,658.1l1.2,12.1h6.1v5.3h-14.7s-2,0-2.3-1.5c0,0-.7,1.5-2.3,1.5h-4.8s-2.6,0-4.3-1c-.5.5-1.1,1-2,1h-5.6v-5.3h6.8c-1-3.8-1.8-6.3-1.8-6.3,0-.2,0-.5.3-.5l3.3-2.8s.5,0,.5.3,2,7.4,2.3,8.3c.2.8,1,.8,1,.8h2.6c1,0,1-.3,1-1,0-1.3-.7-6.5-.7-6.5,0-.3,0-.5.3-.7l4.1-1.6s.5.2.5.7l-.3,8.6s0,.7.3.7h5.1l.3-.5-1.6-8.6s0-.3.2-.3,4.1-2.8,4.5-3h.3l-.3.3h0Z"/>
          <path class="st2" d="M422.5,670.2v5.3h-5.4s-1.5,1.3-2.2,1.8c-.3.3-.7.3-.8.3h-.3c-2.5-1.2-8.3-4.3-8.3-4.3h-.5c-.5,1-.5,1.2-.8,1.8-.3.5-.7.3-.8.3h-4.5v-5.3h3.6c.8-2.3,2.5-5.8,4.3-8.1,1.3-1.6,4.1-4.6,6.4-4.6s1.5.3,2,1.2c2,3.6,3.3,8.1,3.6,11.6h3.6,0ZM414.7,670.6c0-2.5-1.3-5.5-2.2-6.8-.2-.5-.5-.7-.8-.7s-.5,0-.8.5c-1.5,1.5-2.3,2.8-3.1,4.5,1.8,1,4.6,2.7,6.3,3.5.3,0,.7,0,.5-1h.2Z"/>
          <path class="st2" d="M420.3,670.2h7.2v5.3h-7.2v-5.3Z"/>
          <path class="st2" d="M436,671.2c-.7,1-2.2,3-3.1,3.9-.2.2-.5.3-1,.3h-6.6v-5.3h5.9s.5,0,.5-.7c0-1-1.8-19.5-1.8-19.5,0,0,0-.3.3-.7.2,0,3.8-2.3,4.1-2.5.3,0,.3.2.3.2l1.6,22.5s0,.7-.2,1.3l-.2.3h0Z"/>
          <path class="st2" d="M439.5,651s0-.7.3-.7l4.1-2.7s.3,0,.3.2l.8,26s-.2.5-.3.7l-3.1,1.8s-.3,0-.5-.2l-1.6-25.2h0Z"/>
          <path class="st2" d="M478.7,670.2v5.3h-7.7c-2.5,0-2.8-.3-3.9-1.6-2,2-3.6,3.6-3.9,3.9-.7.8-2,2-1.3,3.1.8,1.8,6.3,8.3,6.8,8.8s.2,1,.2,1c0,0-2.3,3.9-2.6,4.5s-.8,0-.8,0c-1-.8-6.9-8.5-8.7-13.2-1.8-4.5.7-6.3,1.8-7.6,1.3-1.5,2.5-2.8,5.1-5.6-2-3.1-3.9-3.1-6.3-4.2,0,0-.5,0-.3-1,.2-.8,2.6-5.3,2.6-5.3.7-1.3,5.9-1.8,7.2-1.8,2,0,3.9.3,5.4.8,3.4,1.3,5.1,5.6,2.3,8.5-1.1,1.3-2.2,2.2-3.9,3.9h7.9l.3.5h0ZM470.3,661.7c-1-.3-2-.5-3.1-.5-2.2,0-3.9.5-3.9.5,1.6,1.2,2.6,2,4.1,4.2,0,0,1.8-1.6,3-2.8s1-1,0-1.5v.2h0Z"/>
          <path class="st2" d="M476.7,670.2h7.2v5.3h-7.2v-5.3Z"/>
          <path class="st2" d="M482.1,670.2h7.2v5.3h-7.2v-5.3Z"/>
          <path class="st2" d="M487.5,670.2h7.2v5.3h-7.2v-5.3Z"/>
          <path class="st2" d="M505.2,675.5h-12.5v-5.3h9.2l-1.5-7.3s0-.2.2-.3c.2,0,4.1-2.8,4.5-3h.2l1.3,14.6s0,1.2-1.3,1.3h0ZM497.3,679.3s-.5-.3-.8-.2l-3.3,2s-.3.5-.2.8l2,3.3s.5.3.8.2l3.3-2s.3-.5.2-.8l-2-3.3ZM504.1,679.1s-.5-.3-.8-.2l-3.3,2s-.3.5-.2.8l2,3.3s.5.3.8.2l3.3-2s.3-.5.2-.8l-2-3.3Z"/>
          <path class="st2" d="M518.9,678.6c-1.8,3.5-6.3,6.6-8.3,8.1-.3.3-.7.5-1,.5s-.3,0-.7-.3c-.8-.7-2.2-2.2-2.6-2.7-.7-.7-.2-1,0-1,5.3-2.3,9.1-5.8,9.4-7.3.7-2.7-2.2-10.4-2.2-10.4,0-.2,0-.5.2-.7l3.6-3h.7c1,4.3,3,12.3.7,16.7h.2Z"/>
          <path class="st2" d="M533.7,670.2v5.3h-4.5s-.8,0-1-.3c-1-1-2.3-3-2.8-3.9-.3-.7-.3-1.3-.3-1.3l-1.8-19.7s0-.3.3-.7c.2,0,3.8-2.3,4.1-2.5s.3.2.3.2c0,0,1.8,22,1.8,22.1,0,.5.5.5.5.5h3.4l-.2.3h0Z"/>
          <path class="st2" d="M531.2,670.2h7.2v5.3h-7.2v-5.3Z"/>
          <path class="st2" d="M536.7,670.2h7.2v5.3h-7.2v-5.3Z"/>
          <path class="st2" d="M542.2,670.2h7.2v5.3h-7.2v-5.3Z"/>
          <path class="st2" d="M576.8,658.1l1.1,12.1h5.6v5.3h-14.4s-2,0-2.3-1.5c0,0-.7,1.5-2.3,1.3h-4.8s-2.6,0-4.3-1c-.5.5-1.1,1-2,1h-5.9v-5.3h7.2c-1-3.8-1.8-6.3-1.8-6.3,0-.2,0-.5.3-.5l3.3-2.8s.5,0,.5.3,2,7.4,2.3,8.3c.2.8,1,.8,1,.8h2.6c1,0,1-.3,1-1,0-1.3-.7-6.5-.7-6.5,0-.3,0-.5.3-.7l4.1-1.6s.5.2.5.7l-.3,8.6s0,.7.3.7h5.1l.3-.5-1.6-8.6s0-.3.2-.3,4.1-2.8,4.5-3h.3l-.3.5h.2ZM563.5,656.3l-3,1.8s-.7,0-.8-.2l-1.8-3s0-.5.2-.8l3-1.6s.5,0,.7.2l1.6,3v.7h.2ZM567.5,650.6l-3,1.8s-.5,0-.7-.2l-1.6-3v-.8l3-1.6s.7,0,.8.2l1.8,3s0,.7-.2.7h-.2ZM570.7,656.1l-3,1.6s-.5,0-.8-.2l-1.6-3s0-.7.2-.7l3-1.8s.7,0,.7.2l1.8,3s0,.5-.2.8h0Z"/>
          <path class="st2" d="M603.6,670.2v5.3h-5.4s-1.5,1.3-2.2,1.8c-.3.3-.7.3-.8.3h-.3c-2.5-1.2-8.3-4.3-8.3-4.3h-.5c-.5,1-.5,1.2-.8,1.8-.3.5-.7.3-.8.3h-4.5v-5.3h3.6c.8-2.3,2.5-5.8,4.3-8.1,1.3-1.6,4.1-4.6,6.4-4.6s1.5.3,2,1.2c2,3.6,3.3,8.1,3.6,11.6h3.6,0ZM595.8,670.6c0-2.5-1.3-5.5-2.2-6.8-.2-.5-.5-.7-.8-.7s-.5,0-.8.5c-1.5,1.5-2.3,2.8-3.1,4.5,1.8,1,4.6,2.7,6.3,3.5.3,0,.7,0,.5-1h.2,0Z"/>
          <path class="st2" d="M611.8,671.2c-.7,1-2.2,3-3.1,3.9-.2.2-.5.3-1,.3h-6.6v-5.3h5.9s.5,0,.5-.7c0-1-1.8-19.5-1.8-19.5,0,0,0-.3.3-.7.2,0,3.8-2.3,4.1-2.5.3,0,.3.2.3.2l1.6,22.5s0,.7-.2,1.3l-.2.3h0Z"/>
          <path class="st2" d="M615.1,651s0-.7.3-.7l4.1-2.7s.3,0,.3.2l.8,26s-.2.5-.3.7l-3.1,1.8s-.3,0-.5-.2l-1.6-25.2h0Z"/>
          <path class="st2" d="M654.8,677.8c-1,1.2-3.8,3.1-6.3,3.9-1.6.7-3.3,1-4.9,1-3.4,0-6.4-1.2-8.3-3-3.3-3.3-3.1-7.1-3.1-7.1,0-.2,0-.4.2-.5l3.3-1.5s.5-.3.5,0c0,0,.5,6.1,6.4,6.6h.8c2.3,0,6.6-.7,8.7-3.5,0,0,0-.5-.2-.7-1.8-.7-7.2-1.5-8-2-1.5-.8-1.8-2.8-.2-5.9,3.1-6.3,7.2-8.8,7.2-8.8,0-.2.5-.2.7,0l2.6,3s.2.5,0,.7c0,0-5.4,3.1-7.2,6.8-.3.8,0,.8.3,1,.7,0,6.1,1,8.7,2.2.2,0,.7.3.5,1.2,0,1.2-.5,3.5-1,4.6-.3.8-.3,1-1,1.8l.2.2h0Z"/>
          <path class="st2" d="M673.7,674.5c-.5-1-.7-1.8-.7-1.8-.3.7-.8,1.6-1.5,2.5-.3.3-.8.3-1,.3h-6.3c-1,0-3.1,0-4.1-.5,0,0-.3-.2-.3-.3l1.5-4.3s.2-.3.3-.3c.3,0,.8.3,2.5.3h7.4s.3,0,.3-.3l-3.8-10.4v-.7l3.3-2.8h.3s3.6,11.9,4.1,13.1c.3.7.8,1.2,1.6,1.2h2.3v5.3h-4.9s-1,0-1.5-1l.3-.2h0Z"/>
          <path class="st2" d="M677.5,670.2h7.2v5.3h-7.2v-5.3Z"/>
          <path class="st2" d="M683,670.2h7.2v5.3h-7.2v-5.3Z"/>
          <path class="st2" d="M688.4,670.2h7.2v5.3h-7.2v-5.3Z"/>
          <path class="st2" d="M693.8,670.2h7.2v5.3h-7.2v-5.3Z"/>
          <path class="st2" d="M717.6,670.2v5.3h-5.7c-1.6,0-2.2-1-2.5-2.5-.3.7-.7,1-1,1.5-.7.8-1.5,1-1.8,1-1.5,0-9.5,0-7.7,0v-5.3h9.5s.5,0,.5-.5-1.5-7.4-1.5-7.4v-.3c.3,0,4.1-2.8,4.5-3,.3-.2.3,0,.3,0l1.1,9.6c.2,1.3,0,1.5,2.8,1.5h1.5v.2h0ZM706,655.6l-3.3,2s-.7,0-.8-.2l-2-3.3s0-.7.2-.8l3.3-2s.7,0,.8.2l2,3.3s0,.7-.2.8ZM712.7,655.3l-3.3,2s-.7,0-.8-.2l-2-3.3s0-.7.2-.8l3.3-2s.7,0,.8.2l2,3.3s0,.7-.2.8Z"/>
          <path class="st2" d="M730.4,670.2v5.3h-6.1c-.8,0-1.6-.3-2-1,0-.2-.3-.7-.7-1.5-.3.7-.5,1-1,1.5-.7.8-1.5,1-1.8,1-1.5,0-6.8,0-4.9,0v-5.3h6.9s.5,0,.5-.5-1.5-6.5-1.5-6.5c0,0,0-.3.2-.3s4.1-2.8,4.3-3h.3l1,8.6c.2,1.3.5,1.5,2,1.5h2.5l.3.2h0ZM723.4,656.3l-3.3,2s-.7,0-.8-.2l-2-3.3s0-.7.2-.8l3.3-2s.7,0,.8.2l2,3.3s0,.7-.2.8Z"/>
          <path class="st2" d="M749.1,673.7s-3.6,3.8-4.3,3.8h-.3c-2.5-1-8-4.2-8.3-4.2h-.3l-.8,1.8s-.7.3-.8.3h-7.1v-5.3h6.3c.8-2.2,2.3-5.6,4.1-8.1,1.2-1.6,4.1-4.6,6.3-4.6s1.5.3,2,1.2c2.5,4.2,3.9,9.9,3.9,13.2s0,1.2-.5,1.8h-.2ZM744.7,671.7s.3-.2.3-1c0-2.5-1.5-5.3-2.2-6.6-.3-.5-.5-.7-.8-.7s-.5,0-.8.5c-1.5,1.5-2.3,2.8-3.1,4.5.8.5,5.9,3.5,6.4,3.5l.2-.2h0Z"/>
          <path class="st2" d="M605.6,451.4v73h36.4v-73.2h109.6v-37.2h-108.7l-37.2,37.4h0Z"/>
          <path class="st2" d="M605.6,304.3l36.4,36.9h109.6v-36.9h-146,0Z"/>
          <path class="st2" d="M584.4,325.9c-14.1-14.3-31.5-21.5-51.6-21.5h-109.6l36.4,36.9h73.2c9.9,0,18.3,3.6,25.5,10.8,7.4,7.1,11,15.9,11,25.8s-3.8,18.7-11,25.8c-7.1,7.1-15.6,10.8-25.5,10.8h-72.8l-36.8,36.9v73.2h36.4v-73.2h73.2c19.9,0,37.2-7.1,51.6-21.5,14.5-14.3,21.4-31.9,21.4-51.9s-7.1-37.4-21.4-51.9h0Z"/>
          <path class="st0" d="M285,414.1l-36.4,36.6v73.8h36.4v-73.2h109.6v-37.2h-109.6Z"/>
          <path class="st0" d="M248.6,304.3l36.4,36.9h109.6v-36.9h-146Z"/>
          <path class="st2" d="M751.7,564.1H247.7v1.2h504v-1.2h0Z"/>
        </g>
      </g>
    </g>
  </g>
</svg>